<svg xmlns="http://www.w3.org/2000/svg" width="1377" height="1376" fill="none"><g filter="url(#a)"><path stroke="#FFD05F" stroke-opacity=".53" stroke-width="2" d="M1123.02 436.701c138.67 240.193 56.38 547.327-183.818 685.999-240.194 138.68-547.328 56.38-686.004-183.81-138.676-240.193-56.379-547.328 183.814-686.003 240.194-138.676 547.328-56.38 686.008 183.814z"/><mask id="c" fill="#fff"><path d="M1123.88 436.201c138.95 240.671 56.49 548.417-184.178 687.369-240.672 138.95-548.418 56.49-687.37-184.18-138.952-240.672-56.492-548.418 184.18-687.37 240.672-138.951 548.418-56.491 687.368 184.181zM513.797 788.433c55.581 96.269 178.679 129.253 274.948 73.672 96.269-55.581 129.253-178.679 73.672-274.948-55.581-96.268-178.679-129.252-274.948-73.672-96.269 55.581-129.253 178.68-73.672 274.948z"/></mask><path stroke="url(#b)" stroke-dasharray="6 124" stroke-miterlimit="3.994" stroke-opacity=".53" stroke-width="246" d="M1123.88 436.201c138.95 240.671 56.49 548.417-184.178 687.369-240.672 138.95-548.418 56.49-687.37-184.18-138.952-240.672-56.492-548.418 184.18-687.37 240.672-138.951 548.418-56.491 687.368 184.181zM513.797 788.433c55.581 96.269 178.679 129.253 274.948 73.672 96.269-55.581 129.253-178.679 73.672-274.948-55.581-96.268-178.679-129.252-274.948-73.672-96.269 55.581-129.253 178.68-73.672 274.948z" mask="url(#c)"/><circle cx="688.107" cy="687.795" r="394.91" stroke="#FFD05F" stroke-opacity=".35" stroke-width="2" transform="rotate(-30 688.107 687.795)"/><path stroke="#FFD05F" stroke-opacity=".2" stroke-width="2" d="M932.779 546.534c78.021 135.128 31.718 307.917-103.41 385.933-135.129 78.013-307.917 31.718-385.934-103.41-78.016-135.129-31.718-307.917 103.411-385.934 135.128-78.016 307.917-31.718 385.933 103.411z"/><path stroke="#FFD05F" stroke-opacity=".1" stroke-width="2" d="M813.328 615.499c39.929 69.158 16.233 157.589-52.924 197.518-69.158 39.928-157.59 16.233-197.518-52.925s-16.233-157.589 52.925-197.518c69.157-39.928 157.589-16.233 197.517 52.925z"/><path fill="#fff" fill-opacity=".35" d="m672.11 477.351-4.007.418-.91-8.656-6.691.711.91 8.656-4.024.428-2.195-20.772 4.023-.427.956 8.972 6.691-.712-.955-8.972 4.006-.417 2.196 20.771zm12.182-4.887-5.22.136-1.073 4.548-4.212.102 5.401-21.023 4.184-.109 6.437 20.721-4.229.112-1.305-4.477.017-.01zm-4.457-3.091 3.557-.089-1.901-6.576-.089.006-1.567 6.659zm15.771-.609-.429 8.355-4.043-.2 1.079-20.835 6.239.326c2.071.106 3.669.737 4.8 1.865 1.141 1.145 1.658 2.674 1.561 4.603-.059 1.084-.349 2.005-.888 2.773-.539.768-1.292 1.362-2.259 1.784 1.062.415 1.818 1.051 2.251 1.92.433.869.612 1.931.564 3.192l-.086 1.512c-.027.586.01 1.204.101 1.837.091.632.307 1.124.644 1.432l-.008.302-4.186-.21c-.32-.318-.502-.829-.561-1.526a16.392 16.392 0 0 1-.037-2.08l.072-1.458c.052-1.057-.131-1.888-.531-2.502-.417-.604-1.022-.94-1.839-.971l-2.427-.129-.017.01zm.165-3.155 2.169.118c.871.045 1.54-.181 2.023-.689.483-.507.75-1.232.8-2.174.057-.97-.123-1.756-.558-2.351-.434-.594-1.056-.92-1.927-.965l-2.214-.115-.32 6.168.027.008zm16.205 4.415-1.052 8.304-4.018-.512 2.62-20.697 6.205.779c2.045.259 3.613.998 4.661 2.22 1.048 1.222 1.453 2.792 1.214 4.712-.14 1.063-.502 1.979-1.097 2.688-.586.727-1.395 1.263-2.385 1.605 1.04.496 1.738 1.19 2.102 2.098.372.882.473 1.966.309 3.225l-.185 1.5a8.281 8.281 0 0 0-.031 1.845c.057.652.229 1.147.542 1.491l-.036.295-4.16-.522c-.296-.354-.433-.868-.448-1.568-.016-.699.04-1.393.123-2.08l.187-1.456c.123-1.053.018-1.906-.338-2.523-.366-.634-.946-1.006-1.759-1.108l-2.42-.316-.034.02zm.388-3.125 2.17.278c.867.116 1.555-.076 2.068-.532.513-.456.834-1.166.955-2.104.128-.965-.008-1.754-.374-2.388-.366-.634-.981-.987-1.847-1.103l-2.197-.285-.775 6.134zm18.305 2.633.081.021 5.321-8.187 4.341.874-8.621 11.965-1.466 7.31-3.955-.8 1.514-7.543-3.275-14.096 4.341.874 1.729 9.599-.01-.017zm19.182 9.137-2.251 7.214-3.847-1.204 6.237-19.93 6.664 2.09c2.005.624 3.408 1.709 4.2 3.239.802 1.547.895 3.251.3 5.148-.595 1.896-1.656 3.263-3.185 4.054-1.53.792-3.306.881-5.293.247l-2.808-.868-.017.01zm.953-3.017 2.808.868c.867.276 1.622.16 2.268-.304.635-.481 1.115-1.193 1.43-2.151.305-.975.323-1.853.081-2.627-.241-.775-.813-1.29-1.68-1.565l-2.807-.869-2.09 6.665-.01-.017zm24.687 12.422c-.917 2.288-2.279 3.805-4.076 4.568-1.797.764-3.767.714-5.91-.15-2.143-.864-3.586-2.178-4.35-3.975-.764-1.797-.682-3.831.218-6.109l2.174-5.412c.909-2.261 2.261-3.795 4.049-4.576 1.787-.78 3.747-.747 5.89.117s3.596 2.194 4.37 4.008c.773 1.815.692 3.849-.208 6.127l-2.174 5.412.017-.01zm-1.559-6.934c.563-1.398.695-2.593.426-3.534-.28-.958-.95-1.644-2.048-2.084-1.099-.439-2.063-.407-2.902.077-.839.485-1.534 1.457-2.114 2.865l-2.181 5.438c-.587 1.436-.729 2.614-.477 3.565.269.94.94 1.627 2.038 2.066 1.099.439 2.062.408 2.919-.087.856-.494 1.561-1.449 2.138-2.901l2.181-5.439.02.034zm19.706 4.427-4.418-2.154-7.781 15.912-3.651-1.775 7.781-15.911-4.29-2.091 1.388-2.857 12.341 6.029-1.387 2.857.017-.01zm13.571 7.764-4.25-2.457-8.844 15.337-3.524-2.03 8.843-15.337-4.139-2.384 1.59-2.744 11.903 6.853-1.589 2.744.01.018zm8.642 18.054c-1.384 2.032-3.023 3.229-4.959 3.593-1.919.355-3.825-.098-5.736-1.392-1.912-1.294-3.045-2.901-3.417-4.811-.372-1.909.13-3.888 1.514-5.921l3.273-4.813c1.367-2.022 3.022-3.229 4.931-3.601 1.91-.371 3.832.072 5.744 1.366s3.045 2.901 3.41 4.837c.364 1.937-.137 3.916-1.504 5.939l-3.273 4.813.017-.01zm-.047-7.122c.846-1.264 1.248-2.387 1.163-3.366-.069-.988-.587-1.808-1.557-2.458-.979-.668-1.92-.833-2.841-.53-.921.303-1.812 1.092-2.675 2.367l-3.297 4.85c-.863 1.274-1.282 2.407-1.214 3.395.068.989.577 1.791 1.556 2.459.98.668 1.93.85 2.868.537.938-.313 1.84-1.085 2.72-2.37l3.297-4.849-.02-.035zm13.305 17.943-5.577-4.636 2.016-2.443 5.577 4.637-2.026 2.425.01.017zm12.939 22.608-2.822-2.87 6.199-6.114-4.727-4.785-6.198 6.114-2.849-2.877 14.873-14.663 2.849 2.878-6.416 6.33 4.727 4.785 6.416-6.33 2.821 2.87-14.873 14.662zm11.438 6.482-3.359-3.998-4.213 1.998-2.71-3.231 19.81-8.88 2.701 3.214-12.205 17.94-2.72-3.248 2.703-3.822-.007.027zm-.377-5.4 2.281 2.725 3.971-5.581-.04-.069-6.212 2.925zm10.312 11.928-6.805 4.866-2.35-3.28 16.965-12.147 3.646 5.089c1.2 1.683 1.715 3.327 1.535 4.915-.179 1.588-1.053 2.96-2.626 4.074-.875.619-1.793.967-2.721 1.022-.927.056-1.879-.17-2.804-.664.341 1.104.311 2.081-.097 2.956-.408.875-1.131 1.681-2.14 2.424l-1.24.898a8.84 8.84 0 0 0-1.371 1.225c-.449.488-.687.945-.722 1.399l-.237.183-2.447-3.407c.062-.446.335-.923.838-1.397a14.313 14.313 0 0 1 1.613-1.319l1.198-.852c.859-.61 1.413-1.272 1.628-1.967.215-.695.094-1.379-.39-2.059l-1.422-1.988-.051.029zm2.558-1.819 1.276 1.775c.504.715 1.111 1.095 1.789 1.16.694.056 1.424-.183 2.197-.743.789-.57 1.292-1.203 1.507-1.898.215-.695.058-1.404-.436-2.1l-1.286-1.793-5.02 3.606-.027-.007zm6.641 15.418-7.146 4.354-2.103-3.444 17.822-10.861 3.262 5.334c1.072 1.778 1.465 3.447 1.17 5.033-.304 1.569-1.289 2.869-2.921 3.88-.932.561-1.846.837-2.795.814-.95-.023-1.844-.306-2.747-.881.263 1.128.162 2.099-.31 2.943-.473.844-1.252 1.59-2.328 2.257l-1.299.796c-.497.287-.978.679-1.474 1.125-.496.446-.762.897-.823 1.343l-.257.149-2.172-3.565c.088-.44.398-.892.948-1.324.55-.432 1.11-.846 1.709-1.193l1.248-.766c.915-.551 1.498-1.162 1.768-1.842.269-.681.192-1.368-.24-2.077l-1.268-2.077-.044.002zm2.71-1.633 1.14 1.854c.452.744 1.018 1.171 1.708 1.298.68.11 1.439-.078 2.252-.569.829-.502 1.378-1.093 1.638-1.791.252-.671.155-1.392-.287-2.118l-1.159-1.889-5.274 3.205-.018.01zm9.357 15.929.039.068 9.725-.955 2.017 3.928-14.735.742-6.618 3.41-1.846-3.593 6.851-3.521 8.976-11.349 2.017 3.928-6.426 7.342zm4.842 20.727-7.048 2.745-1.466-3.767 19.455-7.556 2.527 6.512c.764 1.957.782 3.728.087 5.294-.701 1.593-1.979 2.741-3.833 3.446-1.861.732-3.571.737-5.163.035-1.576-.711-2.745-2.024-3.509-3.98l-1.06-2.746.01.017zm2.943-1.151 1.06 2.745c.325.84.88 1.365 1.663 1.575.784.21 1.63.133 2.582-.234.953-.367 1.657-.888 2.103-1.58.455-.674.516-1.439.181-2.296l-1.06-2.746-6.511 2.526-.018.01zm5.693 27.066c-2.359.699-4.386.59-6.107-.334-1.722-.925-2.906-2.502-3.561-4.704-.655-2.203-.534-4.168.39-5.89.925-1.721 2.563-2.918 4.912-3.635l5.571-1.663c2.342-.69 4.386-.591 6.097.316 1.712.908 2.914 2.475 3.578 4.695.665 2.219.517 4.178-.407 5.899-.925 1.721-2.57 2.945-4.919 3.662l-5.571 1.663.017-.009zm4.469-5.55c1.463-.433 2.47-1.061 3.033-1.865.563-.805.682-1.787.341-2.892-.334-1.131-.963-1.865-1.87-2.209-.906-.344-2.091-.3-3.554.133l-5.622 1.693c-1.479.444-2.514 1.064-3.077 1.869-.573.787-.684 1.742-.351 2.874.334 1.132.963 1.865 1.88 2.226.916.362 2.118.308 3.598-.136l5.622-1.693zm8.8 18.169-1.049-4.784-17.297 3.82-.877-3.97 17.297-3.82-1.024-4.662 3.095-.69 2.967 13.405-3.095.691-.017.01zm2.383 15.479-.726-4.857-17.511 2.619-.604-4.013 17.51-2.619-.717-4.724 3.135-.463 2.038 13.577-3.135.463.01.017zm-8.756 17.981c-2.452.183-4.407-.356-5.902-1.64-1.495-1.283-2.292-3.061-2.474-5.354-.182-2.293.368-4.187 1.645-5.654 1.276-1.468 3.122-2.305 5.574-2.488l5.795-.445c2.452-.182 4.407.356 5.892 1.623 1.485 1.266 2.327 3.041 2.492 5.344.182 2.293-.386 4.197-1.653 5.681-1.283 1.495-3.146 2.342-5.581 2.515l-5.795.445.007-.027zm5.537-4.452c1.508-.117 2.627-.512 3.357-1.185.731-.673 1.048-1.587.969-2.752-.088-1.182-.529-2.024-1.358-2.55-.812-.537-1.985-.75-3.511-.623l-5.838.448c-1.553.12-2.682.498-3.395 1.161-.723.646-1.041 1.56-.952 2.742.089 1.182.539 2.041 1.351 2.577.822.553 1.995.766 3.548.647l5.838-.448-.009-.017zm-5.774 21.603.149-7.257 3.167.067-.148 7.257-3.168-.067zm-9.615 24.165.477-3.998 8.64 1.041.804-6.676-8.64-1.042.485-4.025 20.733 2.487-.485 4.025-8.951-1.067-.804 6.677 8.951 1.066-.478 3.999-20.732-2.487zm2.067 13.034 1.04-5.122-4.2-2.051.833-4.135 19.284 9.946-.825 4.107-21.636 1.644.85-4.145 4.662-.271-.008.027zm3.997-3.677-.703 3.489 6.835-.384.022-.081-6.154-3.024zm-2.899 15.467-8.066-2.263 1.087-3.893 20.081 5.672-1.685 6.02c-.562 1.992-1.522 3.414-2.897 4.276-1.358.853-2.979 1.012-4.836.485-1.036-.292-1.872-.791-2.498-1.48-.627-.689-1.043-1.568-1.229-2.602-.643.942-1.44 1.539-2.374 1.781-.933.242-2.018.183-3.226-.169l-1.469-.409a9.33 9.33 0 0 0-1.817-.298c-.64-.042-1.175.061-1.541.296l-.298-.08 1.14-4.038c.394-.227.921-.303 1.618-.203.697.1 1.37.237 2.028.428l1.415.393c1.01.285 1.861.296 2.554.033.693-.263 1.139-.795 1.349-1.578l.657-2.344.007-.027zm3.046.846-.592 2.1c-.224.837-.164 1.534.216 2.113.38.58 1.035 1.002 1.953 1.248.929.263 1.743.25 2.409-.021.683-.28 1.12-.829 1.371-1.659l.599-2.127-5.949-1.681-.007.027zm-7.908 14.82-7.863-2.86 1.393-3.796 19.603 7.135-2.137 5.87c-.708 1.939-1.769 3.305-3.196 4.038-1.417.749-3.035.793-4.856.131-1.015-.373-1.81-.919-2.377-1.665-.568-.745-.923-1.637-1.03-2.694-.718.894-1.554 1.423-2.51 1.586-.956.164-2.019.024-3.206-.41l-1.422-.526a9.163 9.163 0 0 0-1.791-.451c-.653-.102-1.163-.036-1.557.191l-.29-.106 1.43-3.932c.394-.227.934-.242 1.616-.088.683.154 1.341.345 2.002.58l1.386.502c.988.366 1.852.438 2.547.219.696-.219 1.199-.692 1.47-1.488l.829-2.283-.041.047zm2.97 1.071-.736 2.047c-.306.816-.281 1.532.048 2.141.329.61.959 1.068 1.856 1.395.924.335 1.724.375 2.42.156.695-.219 1.186-.753 1.484-1.542l.761-2.084-5.806-2.106-.027-.007zm-6.627 17.278-.038.091 6.809 7.008-1.805 4.033-9.763-11.057-6.785-3.049 1.65-3.67 7.029 3.158 14.466-.061-1.804 4.033-9.756-.442-.003-.044zM876.664 795.3l-6.537-3.808 2.023-3.497 18.033 10.508-3.528 6.033c-1.051 1.818-2.42 2.928-4.103 3.375-1.684.446-3.375.167-5.102-.846-1.726-1.013-2.816-2.348-3.253-4.014-.437-1.666-.126-3.422.918-5.212l1.478-2.543.071.004zm2.745 1.59-1.478 2.543c-.457.79-.528 1.538-.208 2.29.327.725.924 1.362 1.787 1.869.89.513 1.728.738 2.547.653.802-.074 1.44-.511 1.908-1.284l1.477-2.543-6.033-3.528zm-17.594 21.303c-2.015-1.395-3.205-3.06-3.542-4.989-.338-1.929.142-3.828 1.463-5.732 1.304-1.895 2.921-3.011 4.84-3.365 1.919-.355 3.874.184 5.889 1.578l4.772 3.32c2.015 1.394 3.195 3.043 3.559 4.979.355 1.919-.115 3.835-1.429 5.712-1.304 1.895-2.937 3.021-4.883 3.368-1.947.347-3.909-.164-5.924-1.558l-4.789-3.311.044-.002zm7.117.025c1.257.872 2.37 1.257 3.369 1.206.988-.068 1.817-.569 2.468-1.539.677-.962.86-1.912.556-2.833-.286-.931-1.058-1.833-2.333-2.696l-4.825-3.334c-1.267-.89-2.39-1.292-3.371-1.251-.981.041-1.801.56-2.478 1.522-.678.962-.86 1.912-.564 2.86.296.948 1.068 1.85 2.335 2.74l4.809 3.344.034-.019zm-8.715 18.209 3.076-3.809-13.782-11.135 2.556-3.166 13.783 11.135 2.993-3.715 2.477 1.996-8.636 10.673-2.477-1.996.01.017zm-10.59 11.481 3.337-3.594-12.969-12.061 2.763-2.966 12.97 12.061 3.254-3.5 2.318 2.156-9.355 10.06-2.318-2.156zm-19.59 4.436c-1.676-1.796-2.462-3.671-2.385-5.634.087-1.946.964-3.709 2.66-5.281 1.695-1.573 3.502-2.319 5.438-2.25 1.936.07 3.755 1.007 5.431 2.803l3.969 4.263c1.676 1.796 2.462 3.671 2.402 5.624-.06 1.953-.937 3.716-2.615 5.279-1.679 1.562-3.513 2.302-5.483 2.251-1.963-.077-3.782-1.013-5.448-2.792l-3.969-4.263zm6.942 1.542c1.033 1.116 2.036 1.747 3.011 1.893.974.145 1.886-.176 2.75-.972.865-.796 1.246-1.678 1.161-2.657-.085-.978-.662-2.016-1.694-3.132l-3.989-4.298c-1.043-1.134-2.056-1.782-3.023-1.954-.958-.155-1.869.165-2.734.961-.865.797-1.263 1.689-1.178 2.667.086.979.655 2.043 1.698 3.177l3.988 4.298.01.017zm-20.446 8.926 5.77-4.404 1.915 2.526-5.77 4.404-1.915-2.526zm-24.897 7.546 3.435-2.12 4.574 7.408 5.724-3.533-4.574-7.408 3.435-2.12 10.981 17.754-3.434 2.12-4.75-7.672-5.724 3.533 4.749 7.672-3.434 2.12-10.982-17.754zm-8.861 9.729 4.651-2.388-1.009-4.556 3.747-1.935 4.273 21.285-3.713 1.915-14.802-15.868 3.774-1.928 3.124 3.473-.045.002zm5.35.84-3.172 1.626 4.568 5.104.069-.039-1.483-6.681.018-.01zm-13.901 7.409-3.263-7.708 3.724-1.58 8.111 19.229-5.764 2.437c-1.91.806-3.629.954-5.149.416-1.521-.538-2.645-1.694-3.399-3.474-.414-.994-.561-1.96-.403-2.873.148-.931.566-1.789 1.272-2.584-1.138.086-2.101-.158-2.871-.74-.771-.583-1.4-1.476-1.886-2.634l-.598-1.391a8.156 8.156 0 0 0-.902-1.603c-.378-.535-.779-.875-1.204-1.018l-.115-.276 3.854-1.631c.425.142.812.536 1.175 1.125.364.59.658 1.219.936 1.858l.568 1.339c.404.978.949 1.645 1.574 2.015.625.37 1.326.399 2.095.069l2.238-.949.007-.027zm1.237 2.894-2.005.838c-.803.349-1.296.84-1.514 1.491-.218.651-.136 1.426.236 2.307.382.899.88 1.525 1.522 1.885.642.36 1.351.362 2.137.022l2.039-.857-2.398-5.696-.017.01zm-16.569 3.103-2.665-7.939 3.831-1.276 6.646 19.778-5.933 1.986c-1.971.659-3.681.664-5.146.026-1.475-.656-2.523-1.878-3.13-3.72-.345-1.034-.394-1.988-.175-2.914.219-.926.711-1.735 1.463-2.489-1.143-.002-2.084-.327-2.813-.957-.711-.639-1.29-1.562-1.69-2.769l-.485-1.433a7.884 7.884 0 0 0-.782-1.672c-.327-.565-.704-.942-1.122-1.112l-.096-.286 3.977-1.337c.401.179.771.582 1.093 1.219.321.636.572 1.268.788 1.92l.465 1.398c.336 1.017.813 1.724 1.413 2.131.6.407 1.288.49 2.069.221l2.31-.785-.018.01zm1.012 2.978-2.067.692c-.826.271-1.373.746-1.628 1.373-.254.627-.234 1.414.06 2.318.303.921.777 1.584 1.378 1.991.617.397 1.321.47 2.137.182l2.084-.701-1.964-5.855zm-17.642 5.596-.068.039-1.245 9.671-4.275 1.098 2.574-14.526-1.85-7.2 3.901-.996 1.91 7.462 9.068 11.276-4.276 1.098-5.729-7.905-.01-.017zm-21.216.076-1.096-7.475 4.006-.577 3.005 20.67-6.914.999c-2.064.301-3.805-.064-5.188-1.115-1.383-1.051-2.227-2.551-2.513-4.51-.295-1.976.082-3.656 1.116-5.029 1.034-1.374 2.595-2.23 4.659-2.531l2.908-.422.017-.01zm.463 3.136-2.907.422c-.905.134-1.536.544-1.918 1.267-.365.713-.491 1.562-.352 2.555.15 1.01.499 1.814 1.066 2.4.567.586 1.299.826 2.204.692l2.907-.423-1-6.913zm-27.703-.518c-.155-2.445.4-4.41 1.704-5.871 1.303-1.46 3.097-2.268 5.383-2.423 2.286-.155 4.172.423 5.64 1.7 1.468 1.276 2.281 3.159 2.436 5.604l.385 5.808c.155 2.445-.4 4.41-1.676 5.878-1.277 1.467-3.061 2.292-5.374 2.44-2.295.137-4.189-.414-5.677-1.724-1.487-1.311-2.308-3.167-2.463-5.612l-.385-5.808.027.008zm4.412 5.583c.1 1.518.478 2.648 1.151 3.378.673.731 1.569 1.058 2.734.979 1.165-.079 2.034-.512 2.57-1.324s.759-1.968.676-3.496l-.387-5.852c-.093-1.545-.48-2.691-1.126-3.414-.656-.741-1.553-1.068-2.735-.979-1.165.078-2.034.512-2.587 1.333-.563.805-.793 1.988-.673 3.541l.387 5.851-.01-.017zm-19.656 4.52 4.911.042.141-17.713 4.06.032-.141 17.712 4.769.033-.023 3.165-13.74-.106.023-3.165zm-15.565-1.131 4.895.371 1.342-17.652 4.041.316-1.341 17.652 4.753.361-.236 3.151-13.69-1.048.236-3.151zm-15.631-12.557c.359-2.423 1.333-4.218 2.902-5.376 1.57-1.157 3.504-1.566 5.784-1.215 2.281.35 3.995 1.302 5.152 2.872 1.158 1.57 1.552 3.557 1.202 5.997l-.86 5.75c-.359 2.422-1.332 4.218-2.892 5.392-1.56 1.175-3.494 1.583-5.764 1.25-2.281-.351-3.995-1.302-5.179-2.88-1.185-1.577-1.572-3.591-1.202-5.997l.86-5.749-.003-.044zm3.105 6.406c-.229 1.502-.096 2.682.398 3.538.495.856 1.314 1.366 2.468 1.544 1.154.179 2.104-.073 2.79-.743.704-.68 1.17-1.771 1.399-3.274l.874-5.803c.236-1.529.11-2.736-.374-3.575-.485-.839-1.297-1.375-2.468-1.544-1.153-.179-2.104.073-2.807.753-.704.68-1.187 1.781-1.423 3.311l-.874 5.803.017-.01zM630.706 898l7.044 1.757-.764 3.067-7.044-1.757.764-3.067zm-21.432-14.735 3.793 1.35-2.919 8.194 6.329 2.261 2.92-8.195 3.803 1.367-7.006 19.666-3.803-1.366 3.043-8.495-6.33-2.26-3.026 8.484-3.793-1.35 7.006-19.666-.017.01zm-13.131-.869 4.754 2.142 2.928-3.631 3.851 1.727-13.976 16.611-3.825-1.72 3.176-21.475 3.862 1.745-.77 4.601zm2.693 4.703-3.242-1.463-1.145 6.759.091.039 4.296-5.335zm-14.455-6.249 3.998-7.355 3.553 1.923-9.975 18.32-5.496-2.993c-1.823-.981-2.989-2.249-3.523-3.768-.534-1.518-.338-3.116.597-4.82.518-.962 1.194-1.649 1.999-2.114.805-.465 1.759-.672 2.816-.621-.786-.847-1.185-1.736-1.199-2.71-.014-.974.278-2.01.876-3.11l.735-1.337a8.32 8.32 0 0 0 .704-1.709c.183-.631.206-1.146.047-1.58l.143-.265 3.674 2.012c.159.434.103.969-.159 1.623a16.425 16.425 0 0 1-.88 1.878l-.693 1.291c-.511.934-.701 1.752-.595 2.49.096.721.511 1.281 1.244 1.68l2.134 1.165zm-1.508 2.767-1.923-1.037c-.77-.423-1.474-.496-2.116-.263-.642.234-1.193.781-1.666 1.624-.462.861-.645 1.652-.514 2.353.124.728.555 1.278 1.325 1.701l1.933 1.054 2.961-5.432zm-12.73-11.013 4.549-7.033 3.392 2.197-11.325 17.524-5.245-3.389c-1.742-1.118-2.815-2.463-3.237-4.023-.412-1.544-.1-3.14.955-4.754.592-.913 1.315-1.559 2.16-1.955.844-.396 1.793-.533 2.846-.41-.718-.887-1.058-1.833-.991-2.785.057-.969.43-1.984 1.102-3.034l.819-1.272c.316-.48.584-1.045.831-1.645.238-.617.287-1.125.162-1.578l.154-.249 3.52 2.261c.115.437.015.974-.284 1.604a16.24 16.24 0 0 1-1.008 1.814l-.794 1.235c-.585.886-.846 1.699-.784 2.44.053.723.416 1.313 1.107 1.759l2.047 1.33.024-.037zm-1.71 2.655-1.825-1.184c-.728-.471-1.428-.615-2.09-.415-.661.199-1.253.677-1.771 1.479-.527.829-.773 1.588-.694 2.319.069.714.469 1.328 1.188 1.781l1.852 1.191 3.357-5.181-.017.01zm-15.38-10.304-.074-.049-8.352 5.073-3.527-2.668 12.965-7.051 4.472-5.939 3.212 2.439-4.645 6.153-3.175 14.12-3.527-2.668 2.607-9.408.044-.002zm-13.294-16.579 5.171-5.52 2.948 2.773-14.272 15.229-5.089-4.781c-1.53-1.423-2.317-3.024-2.377-4.749-.042-1.734.599-3.314 1.973-4.77 1.375-1.456 2.907-2.203 4.631-2.263 1.725-.059 3.361.641 4.874 2.074l2.141 2.007zm-2.173 2.328-2.141-2.007c-.658-.625-1.39-.865-2.186-.702-.797.163-1.533.588-2.207 1.32-.708.751-1.104 1.528-1.216 2.323-.102.813.171 1.523.829 2.148l2.141 2.007 4.78-5.089zm-16.833-21.958c1.815-1.642 3.707-2.438 5.646-2.323 1.955.104 3.711 1.009 5.257 2.697 1.555 1.705 2.285 3.522 2.181 5.478-.105 1.956-1.061 3.741-2.866 5.4l-4.31 3.927c-1.815 1.642-3.69 2.428-5.653 2.35-1.946-.087-3.709-.964-5.247-2.68-1.556-1.705-2.278-3.549-2.191-5.495.094-1.973 1.041-3.775 2.856-5.417l4.309-3.927.018-.01zm-1.623 6.92c-1.126 1.016-1.757 2.02-1.919 3.004-.163.985.158 1.896.937 2.771.796.864 1.671 1.273 2.65 1.187.961-.075 2.008-.634 3.152-1.66l4.344-3.946c1.15-1.053 1.808-2.049 1.98-3.017.173-.967-.148-1.878-.927-2.753-.796-.865-1.671-1.273-2.66-1.205-.988.068-2.035.627-3.196 1.663l-4.344 3.946-.017.01zm-15.763-12.549 3.032 3.867 13.946-10.929 2.504 3.19-13.946 10.93 2.946 3.757-2.496 1.966-8.482-10.815 2.496-1.966zm-8.848-12.911 2.751 4.052 14.652-9.943 2.284 3.363-14.651 9.943 2.691 3.95-2.622 1.788-7.726-11.366 2.621-1.787zm.068-19.818c2.104-1.26 4.109-1.664 5.991-1.174 1.898.48 3.434 1.717 4.616 3.684 1.181 1.967 1.545 3.903 1.066 5.802-.463 1.888-1.768 3.464-3.872 4.725l-4.986 2.992c-2.104 1.261-4.092 1.655-5.997 1.202-1.889-.463-3.442-1.69-4.624-3.657-1.181-1.967-1.528-3.913-1.059-5.829.48-1.898 1.776-3.491 3.862-4.742l4.986-2.993.017-.01zm-2.968 6.487c-1.309.779-2.134 1.644-2.469 2.568-.351.933-.214 1.882.386 2.883.584 1.01 1.388 1.574 2.343 1.685.955.111 2.104-.233 3.413-1.011l5.037-3.023c1.326-.788 2.178-1.646 2.523-2.553.361-.916.241-1.875-.359-2.876-.584-1.01-1.388-1.573-2.37-1.692-.982-.118-2.131.226-3.457 1.014l-5.037 3.023-.01-.018zm-4.265-22.18 3.01 6.598-2.889 1.326-3.01-6.598 2.872-1.316.017-.01zm-1.868-25.939 1.31 3.812-8.23 2.833 2.19 6.363 8.23-2.833 1.319 3.829-19.741 6.784-1.32-3.828 8.534-2.94-2.19-6.364-8.533 2.94-1.31-3.811 19.741-6.785zm-7.518-10.846 1.296 5.052 4.67.022 1.034 4.084-21.69-.586-1.041-4.058 18.759-10.899 1.043 4.102-4.081 2.266.01.017zm-2.001 5.038-.872-3.448-5.985 3.318.039.069 6.835.051-.017.01zm-4.124-15.251 8.251-1.452.7 3.981-20.553 3.599-1.088-6.155c-.352-2.035-.11-3.751.758-5.096.857-1.363 2.242-2.208 4.153-2.536 1.062-.179 2.024-.094 2.886.253.863.346 1.609.966 2.236 1.815.172-1.127.624-2.005 1.384-2.626.76-.622 1.737-1.026 2.982-1.243l1.49-.266a8.28 8.28 0 0 0 1.777-.523c.614-.241 1.02-.566 1.254-.953l.289-.052.718 4.13c-.234.386-.704.68-1.365.879-.679.209-1.343.364-2.017.502l-1.446.264c-1.034.186-1.81.543-2.318 1.088-.491.534-.672 1.209-.526 2.016l.428 2.402.007-.027zm-3.113.541-.377-2.157c-.149-.85-.522-1.457-1.12-1.82-.598-.363-1.356-.45-2.295-.297-.956.164-1.688.518-2.168 1.07-.491.534-.652 1.244-.514 2.077l.388 2.175 6.093-1.075-.007.027zm.703-16.78 8.341-.82.401 4.017-20.771 2.035-.604-6.229c-.213-2.069.174-3.732 1.132-5.039.968-1.289 2.395-2.022 4.315-2.217 1.084-.1 2.041.055 2.872.466.841.428 1.536 1.077 2.104 1.983.26-1.132.786-1.962 1.559-2.522.8-.553 1.806-.906 3.067-1.017l1.515-.144a8.74 8.74 0 0 0 1.811-.383c.617-.197 1.07-.481 1.331-.86l.299-.035.401 4.176c-.27.361-.76.621-1.424.776a15.11 15.11 0 0 1-2.044.336l-1.454.131c-1.057.108-1.846.403-2.383.896-.538.493-.773 1.154-.688 1.973l.234 2.423-.014.054zm-3.137.303-.201-2.168c-.087-.863-.409-1.499-.982-1.899-.573-.4-1.327-.558-2.279-.466-.968.103-1.713.395-2.24.906-.528.51-.753 1.188-.675 2.034l.22 2.202 6.157-.609zm-1.495-18.412-.006-.088-9.16-3.367-.105-4.415 13.591 5.742 7.432-.18.109 4.025-7.697.196-13.027 6.31-.106-4.415 8.986-3.818-.017.01zm4.666-20.713 7.524.612-.326 4.025-20.817-1.684.565-6.972c.167-2.084.913-3.679 2.245-4.814 1.315-1.124 2.978-1.605 4.963-1.449 1.986.155 3.554.894 4.661 2.219 1.108 1.325 1.582 3.015 1.424 5.116l-.232 2.92-.007.027zm-3.161-.253.232-2.921c.07-.908-.203-1.618-.802-2.14-.598-.523-1.414-.828-2.42-.909-1.023-.072-1.874.077-2.583.509-.703.405-1.087 1.084-1.157 1.992l-.232 2.92 6.972.566-.01-.017zm6.682-26.833c2.416.386 4.221 1.377 5.344 2.967 1.14 1.579 1.532 3.523 1.154 5.796-.377 2.274-1.329 3.988-2.908 5.128-1.58 1.14-3.577 1.517-6.003 1.113l-5.744-.931c-2.416-.387-4.194-1.37-5.351-2.94-1.158-1.57-1.539-3.496-1.189-5.777.377-2.273 1.346-3.997 2.943-5.147 1.596-1.151 3.594-1.527 6.01-1.141l5.744.932zm-6.435 3.053c-1.513-.246-2.675-.123-3.558.364-.857.494-1.393 1.306-1.571 2.46-.196 1.164.046 2.097.726 2.801.663.713 1.754 1.179 3.267 1.425l5.788.929c1.529.236 2.728.138 3.578-.33.849-.467 1.385-1.279 1.564-2.433.195-1.163-.047-2.097-.72-2.828-.663-.713-1.764-1.196-3.303-1.45l-5.789-.928.018-.01zm-.042-20.165-1.122 4.781 17.239 4.07-.941 3.946-17.239-4.069-1.103 4.656-3.091-.727 3.148-13.374 3.092.727.017-.01zm4.559-14.965-1.445 4.694 16.927 5.232-1.194 3.864-16.928-5.231-1.41 4.559-3.033-.943 4.05-13.118 3.033.943zm15.705-12.47c2.296.89 3.83 2.242 4.611 4.03.78 1.787.757 3.764-.089 5.897-.837 2.151-2.14 3.611-3.927 4.392-1.788.78-3.829.726-6.107-.174l-5.426-2.12c-2.278-.901-3.819-2.226-4.617-4.003-.798-1.778-.775-3.755.061-5.905.837-2.151 2.158-3.621 3.962-4.412 1.804-.79 3.846-.735 6.114.148l5.426 2.12-.008.027zm-6.937 1.63c-1.415-.553-2.594-.695-3.542-.399-.948.296-1.624.983-2.046 2.072-.422 1.089-.391 2.053.111 2.882.502.83 1.474 1.524 2.889 2.077l5.463 2.145c1.443.56 2.631.719 3.579.423.948-.296 1.617-.956 2.056-2.055.422-1.088.381-2.069-.104-2.909-.494-.856-1.466-1.551-2.909-2.111l-5.463-2.145-.034.02zm14.525-16.927-3.28 6.461-2.833-1.425 3.28-6.461 2.833 1.425zm19.157-17.684-2.17 3.4-7.334-4.673-3.619 5.675 7.333 4.673-2.17 3.4-17.615-11.207 2.161-3.417 7.619 4.851 3.62-5.676-7.609-4.833 2.17-3.4 17.614 11.207zm3.763-12.587-3.143 4.167 2.896 3.672-2.536 3.36-13.064-17.328 2.529-3.333 20.214 7.879-2.553 3.369-4.316-1.779-.027-.007zm-5.186 1.578 2.151-2.84-6.333-2.624-.049.074 4.231 5.39zm9.363-12.736 6.27 5.56-2.679 3.032-15.627-13.816 4.149-4.679c1.386-1.554 2.849-2.422 4.47-2.581 1.621-.159 3.115.371 4.565 1.658.806.722 1.342 1.532 1.608 2.429.267.896.254 1.863-.021 2.89.993-.574 1.956-.765 2.917-.565.96.199 1.894.71 2.84 1.557l1.133 1.013c.431.391.93.742 1.508 1.071.578.328 1.082.449 1.53.395l.224.19-2.78 3.136c-.448.053-.964-.129-1.555-.518-.59-.39-1.129-.81-1.644-1.266l-1.086-.972c-.796-.705-1.563-1.085-2.284-1.148-.722-.063-1.361.215-1.917.833l-1.618 1.825-.003-.044zm-2.367-2.082 1.452-1.638c.581-.655.816-1.316.74-2.003-.094-.676-.497-1.335-1.209-1.974-.739-.647-1.459-.985-2.198-1.038-.728-.036-1.384.251-1.948.897l-1.47 1.647 4.623 4.092.01.017zm13.563-9.932 5.845 6.012-2.896 2.814-14.536-14.971 4.497-4.355c1.49-1.454 3.032-2.185 4.641-2.246 1.609-.061 3.093.612 4.417 1.995.747.779 1.231 1.619 1.419 2.538.189.919.122 1.871-.234 2.876 1.033-.505 2.018-.617 2.956-.337.929.263 1.842.855 2.712 1.769l1.067 1.097c.406.427.882.815 1.435 1.181.537.375 1.043.54 1.501.503l.217.218-2.997 2.918c-.451.009-.96-.2-1.509-.637a14.386 14.386 0 0 1-1.537-1.396l-1.02-1.055c-.737-.762-1.472-1.206-2.196-1.313-.725-.107-1.376.109-1.97.703l-1.758 1.701-.054-.015zm-2.191-2.252 1.566-1.521c.627-.613.916-1.26.884-1.949-.033-.689-.384-1.377-1.055-2.063-.68-.704-1.386-1.096-2.11-1.203-.724-.107-1.4.146-2.01.75l-1.583 1.53 4.298 4.439.01.017zm13.469-12.664.069-.04-3.074-9.279 3.382-2.843 3.965 14.223 4.782 5.712-3.097 2.587-4.952-5.888-13.046-6.261 3.382-2.844 8.582 4.66.007-.027zm19.149-9.274 4.213 6.269-3.355 2.257-11.647-17.325 5.792-3.891c1.746-1.169 3.449-1.581 5.153-1.24 1.704.341 3.102 1.338 4.211 2.982 1.118 1.66 1.511 3.329 1.17 5.033-.341 1.704-1.372 3.122-3.118 4.29l-2.436 1.635.017-.01zm-1.771-2.632 2.436-1.635c.759-.506 1.153-1.168 1.176-1.958.041-.8-.23-1.625-.803-2.459-.583-.851-1.228-1.415-2.007-1.696-.779-.281-1.517-.175-2.275.331l-2.436 1.635 3.892 5.792.017-.01zm25.149-11.459c1.192 2.143 1.518 4.171.974 6.037-.543 1.867-1.817 3.379-3.84 4.502-2.024 1.123-3.956 1.416-5.823.872-1.866-.544-3.408-1.869-4.6-4.013l-2.822-5.085c-1.192-2.144-1.525-4.144-.991-6.028.517-1.874 1.79-3.386 3.797-4.499 2.006-1.113 3.965-1.398 5.866-.875 1.884.534 3.436 1.877 4.628 4.02l2.821 5.086-.01-.017zm-6.375-3.171c-.744-1.329-1.557-2.184-2.484-2.563-.926-.378-1.878-.286-2.898.281-1.011.583-1.603 1.336-1.758 2.294-.156.957.144 2.109.898 3.455l2.852 5.136c.754 1.346 1.577 2.218 2.469 2.617.91.388 1.861.296 2.882-.271 1.01-.583 1.62-1.346 1.765-2.321.145-.974-.137-2.136-.891-3.482l-2.852-5.136.017-.01zm15.68-12.593-4.428 2.1 7.588 15.991-3.679 1.735-7.571-16-4.325 2.04-1.36-2.869 12.406-5.883 1.359 2.869.01.017zm14.487-5.76-4.562 1.789 6.484 16.491-3.774 1.493-6.484-16.491-4.449 1.747-1.151-2.944 12.784-5.029 1.152 2.944zm19.576 4.479c.734 2.339.635 4.383-.289 6.104-.925 1.722-2.465 2.931-4.674 3.613-2.21.682-4.165.577-5.877-.33-1.728-.898-2.952-2.543-3.687-4.883l-1.725-5.559c-.734-2.339-.635-4.383.263-6.112.897-1.728 2.454-2.947 4.647-3.619 2.209-.682 4.175-.561 5.913.354 1.739.915 2.98 2.551 3.704 4.873l1.725 5.559zm-5.581-4.406c-.45-1.453-1.078-2.461-1.9-3.014-.822-.553-1.776-.664-2.898-.314-1.122.351-1.855.98-2.2 1.887-.344.907-.272 2.099.178 3.551l1.728 5.603c.46 1.47 1.081 2.505 1.885 3.068.805.563 1.76.674 2.882.323 1.122-.35 1.855-.979 2.216-1.896.361-.917.307-2.118-.163-3.605l-1.745-5.593.017-.01zm22.28.817-7.097 1.471-.647-3.098 7.097-1.471.647 3.098z"/><path fill="#FFEFCA" d="m656.949 262.583-8.102.844-1.839-17.502-13.53 1.439 1.839 17.502-8.136.864-4.439-42 8.136-.865 1.931 18.142 13.53-1.438-1.931-18.142 8.101-.845 4.44 42.001zm24.633-9.881-10.555.275-2.171 9.196-8.516.207 10.921-42.51 8.461-.221 13.015 41.898-8.55.226-2.64-9.051.035-.02zm-9.012-6.25 7.192-.181-3.844-13.297-.179.011-3.169 13.467zm31.889-1.232-.866 16.894-8.177-.405 2.182-42.129 12.617.658c4.188.215 7.418 1.49 9.705 3.772 2.307 2.316 3.352 5.407 3.156 9.307-.119 2.193-.706 4.056-1.795 5.608-1.089 1.553-2.611 2.755-4.567 3.607 2.147.839 3.675 2.126 4.551 3.884.876 1.757 1.238 3.903 1.14 6.453l-.175 3.057a19.793 19.793 0 0 0 .206 3.714c.184 1.279.62 2.274 1.302 2.896l-.017.61-8.464-.424c-.648-.642-1.014-1.677-1.135-3.085a33.141 33.141 0 0 1-.073-4.206l.145-2.947c.105-2.139-.265-3.819-1.074-5.06-.844-1.222-2.067-1.901-3.719-1.963l-4.907-.261-.035.02zm.334-6.381 4.386.239c1.761.091 3.113-.366 4.091-1.392.977-1.026 1.516-2.492 1.617-4.397.115-1.96-.249-3.551-1.128-4.753-.878-1.201-2.136-1.86-3.897-1.952l-4.475-.233-.649 12.474.055.014zm32.768 8.928-2.127 16.791-8.125-1.036 5.298-41.85 12.547 1.577c4.134.522 7.306 2.016 9.425 4.487 2.119 2.471 2.937 5.647 2.453 9.528-.283 2.149-1.013 4.003-2.217 5.437-1.184 1.468-2.821 2.552-4.822 3.245 2.103 1.003 3.513 2.406 4.25 4.243.752 1.782.955 3.974.625 6.52l-.374 3.032c-.163 1.157-.177 2.412-.062 3.731.115 1.319.462 2.32 1.095 3.016l-.072.596-8.413-1.054c-.598-.717-.875-1.758-.907-3.171-.031-1.414.082-2.818.249-4.208l.379-2.943c.248-2.129.037-3.854-.683-5.101-.739-1.282-1.914-2.036-3.556-2.242l-4.894-.638-.069.04zm.785-6.318 4.387.561c1.752.235 3.144-.153 4.182-1.075 1.037-.922 1.686-2.359 1.93-4.255.259-1.95-.016-3.546-.756-4.828-.739-1.281-1.983-1.995-3.735-2.23l-4.442-.576-1.566 12.403zm37.013 5.323.163.044 10.759-16.556 8.778 1.767-17.431 24.195-2.964 14.78-7.999-1.617 3.062-15.252-6.621-28.503 8.778 1.767 3.495 19.41-.02-.035zm38.787 18.475-4.552 14.589-7.779-2.436 12.612-40.3 13.476 4.226c4.053 1.262 6.89 3.457 8.492 6.55 1.621 3.128 1.81 6.575.607 10.41s-3.348 6.597-6.441 8.198-6.684 1.781-10.702.499l-5.678-1.756-.035.02zm1.927-6.1 5.678 1.756c1.753.558 3.28.323 4.585-.616 1.286-.973 2.256-2.41 2.892-4.348.617-1.972.653-3.748.165-5.313-.488-1.566-1.643-2.607-3.397-3.165l-5.677-1.756-4.226 13.477-.02-.035zm49.919 25.118c-1.854 4.626-4.608 7.694-8.242 9.238-3.634 1.544-7.617 1.442-11.951-.304-4.333-1.747-7.251-4.403-8.796-8.037-1.544-3.634-1.379-7.747.441-12.354l4.395-10.942c1.84-4.572 4.574-7.674 8.188-9.253 3.614-1.578 7.577-1.512 11.911.235 4.333 1.747 7.271 4.437 8.835 8.106 1.565 3.669 1.399 7.782-.42 12.388l-4.395 10.943.034-.02zm-3.153-14.019c1.138-2.828 1.405-5.245.861-7.147-.564-1.937-1.92-3.325-4.141-4.213-2.221-.888-4.17-.825-5.867.155-1.697.979-3.102 2.945-4.275 5.792l-4.41 10.997c-1.187 2.903-1.474 5.285-.965 7.207.545 1.903 1.9 3.291 4.121 4.179 2.222.888 4.171.825 5.902-.175 1.732-1 3.157-2.931 4.324-5.868l4.41-10.997.04.07zm39.846 8.951-8.933-4.356-15.733 32.174-7.382-3.588 15.733-32.174-8.675-4.228 2.807-5.776 24.955 12.191-2.806 5.777.034-.02zm27.442 15.698-8.594-4.968-17.881 31.013-7.127-4.106 17.881-31.012-8.369-4.819 3.214-5.551 24.07 13.858-3.214 5.55.02.035zm17.475 36.506c-2.799 4.11-6.112 6.53-10.027 7.267-3.881.716-7.734-.199-11.6-2.816-3.866-2.617-6.157-5.866-6.908-9.727-.752-3.861.262-7.863 3.061-11.973l6.618-9.732c2.764-4.09 6.111-6.53 9.972-7.281 3.861-.752 7.749.144 11.614 2.761 3.866 2.617 6.158 5.866 6.894 9.781.737 3.916-.276 7.918-3.041 12.008l-6.618 9.732.035-.02zm-.095-14.4c1.71-2.557 2.523-4.828 2.351-6.806-.138-1.999-1.187-3.656-3.148-4.971-1.98-1.351-3.881-1.685-5.743-1.071-1.863.613-3.666 2.208-5.41 4.786l-6.668 9.806c-1.744 2.577-2.592 4.868-2.454 6.866.138 1.999 1.167 3.621 3.147 4.972 1.981 1.35 3.902 1.719 5.799 1.085 1.897-.633 3.72-2.194 5.499-4.791l6.667-9.807-.04-.069zm26.904 36.281-11.277-9.375 4.075-4.938 11.277 9.375-4.095 4.904.02.034zm26.159 45.715-5.702-5.804 12.532-12.362-9.556-9.675-12.533 12.362-5.761-5.818 30.08-29.648 5.76 5.818-12.98 12.801 9.56 9.675 12.97-12.8 5.71 5.803-30.08 29.648zm23.13 13.107-6.79-8.085-8.52 4.041-5.48-6.534 40.06-17.955 5.46 6.499-24.68 36.276-5.5-6.568 5.47-7.728-.02.054zm-.76-10.919 4.61 5.51 8.03-11.285-.08-.139-12.56 5.914zm20.85 24.12-13.76 9.838-4.75-6.631 34.3-24.562 7.38 10.29c2.42 3.402 3.46 6.726 3.1 9.937-.36 3.211-2.13 5.987-5.31 8.238-1.77 1.253-3.63 1.955-5.5 2.068-1.88.112-3.8-.345-5.67-1.344.69 2.234.63 4.209-.2 5.978-.82 1.77-2.28 3.398-4.33 4.9l-2.5 1.817c-.95.684-1.9 1.511-2.77 2.478-.91.986-1.39 1.911-1.46 2.829l-.48.369-4.95-6.888c.12-.904.68-1.868 1.69-2.825a29.514 29.514 0 0 1 3.26-2.669l2.43-1.722c1.73-1.233 2.85-2.572 3.29-3.978.43-1.405.19-2.788-.79-4.163l-2.87-4.02-.11.06zm5.17-3.679 2.58 3.59c1.02 1.444 2.25 2.212 3.62 2.345 1.4.113 2.88-.37 4.44-1.503 1.6-1.153 2.62-2.432 3.05-3.838.44-1.405.12-2.837-.88-4.247l-2.6-3.624-10.15 7.292-.06-.015zm13.43 31.177-14.45 8.804-4.25-6.965 36.04-21.961 6.59 10.785c2.17 3.596 2.97 6.971 2.37 10.178-.62 3.173-2.61 5.801-5.91 7.844-1.88 1.134-3.73 1.693-5.65 1.647-1.92-.046-3.73-.618-5.55-1.781.53 2.279.32 4.245-.63 5.95-.96 1.706-2.53 3.216-4.71 4.565l-2.62 1.609c-1.01.58-1.98 1.373-2.99 2.275-1 .902-1.53 1.812-1.66 2.716l-.52.3-4.39-7.208c.18-.889.8-1.805 1.92-2.678 1.11-.873 2.24-1.711 3.45-2.411l2.53-1.549c1.85-1.114 3.03-2.349 3.57-3.726.54-1.376.39-2.765-.49-4.199l-2.56-4.2-.09.005zm5.48-3.303 2.31 3.75c.91 1.504 2.06 2.367 3.45 2.623 1.38.223 2.91-.156 4.55-1.151 1.68-1.014 2.79-2.209 3.32-3.621.51-1.356.31-2.814-.58-4.283l-2.35-3.819-10.66 6.481-.04.02zm18.92 32.209.08.139 19.67-1.933 4.07 7.944-29.79 1.501-13.38 6.894-3.74-7.265 13.86-7.12 18.15-22.948 4.08 7.943-13 14.845zm9.79 41.913-14.25 5.549-2.96-7.616 39.34-15.279 5.11 13.168c1.54 3.956 1.58 7.538.17 10.704-1.42 3.22-4 5.543-7.75 6.969-3.76 1.48-7.22 1.49-10.44.07-3.19-1.439-5.55-4.092-7.09-8.049l-2.15-5.551.02.035zm5.96-2.328 2.14 5.551c.66 1.698 1.78 2.76 3.36 3.184 1.58.425 3.3.269 5.22-.474 1.93-.743 3.35-1.796 4.25-3.193.92-1.364 1.05-2.912.37-4.645l-2.14-5.551-13.17 5.108-.03.02zm11.51 54.727c-4.77 1.415-8.87 1.195-12.35-.674-3.48-1.87-5.88-5.059-7.2-9.512-1.33-4.454-1.08-8.429.79-11.909 1.87-3.481 5.18-5.901 9.93-7.351l11.26-3.363c4.74-1.395 8.87-1.195 12.33.64 3.46 1.835 5.89 5.004 7.24 9.492 1.34 4.488 1.04 8.448-.83 11.929-1.87 3.48-5.19 5.955-9.94 7.405l-11.27 3.363.04-.02zm9.03-11.22c2.96-.877 5-2.146 6.14-3.773 1.13-1.627 1.37-3.612.68-5.846-.67-2.289-1.94-3.771-3.78-4.468-1.83-.696-4.22-.606-7.18.27l-11.37 3.423c-2.99.897-5.08 2.151-6.22 3.778-1.16 1.592-1.39 3.523-.71 5.812.67 2.289 1.95 3.771 3.8 4.502 1.85.731 4.28.621 7.27-.275l11.37-3.423zm17.8 36.738-2.13-9.674-34.97 7.724-1.77-8.028 34.97-7.724-2.07-9.426 6.26-1.396 6 27.107-6.26 1.397-.03.02zm4.81 31.299-1.46-9.82-35.41 5.295-1.22-8.115 35.4-5.295-1.45-9.553 6.34-.935 4.12 27.452-6.34.936.02.035zm-17.7 36.359c-4.96.369-8.91-.72-11.93-3.315-3.03-2.596-4.64-6.191-5.01-10.827-.37-4.636.75-8.466 3.33-11.434s6.31-4.661 11.27-5.03l11.72-.9c4.96-.369 8.91.72 11.91 3.281s4.71 6.15 5.04 10.807c.37 4.636-.78 8.485-3.34 11.488-2.6 3.022-6.36 4.735-11.29 5.085l-11.71.9.01-.055zm11.2-9.003c3.04-.237 5.31-1.036 6.78-2.396 1.48-1.361 2.12-3.209 1.96-5.565-.18-2.39-1.07-4.092-2.74-5.156-1.64-1.084-4.02-1.515-7.1-1.259l-11.81.906c-3.14.242-5.42 1.006-6.86 2.347-1.46 1.306-2.11 3.154-1.93 5.544.18 2.39 1.09 4.127 2.74 5.211 1.66 1.119 4.03 1.55 7.17 1.308l11.81-.905-.02-.035zm-11.68 43.684.3-14.675 6.41.136-.3 14.674-6.41-.135zm-19.44 48.862.96-8.085 17.47 2.106 1.63-13.5-17.47-2.105.98-8.14 41.92 5.028-.98 8.14-18.1-2.157-1.62 13.499 18.1 2.158-.97 8.084-41.92-5.028zm4.18 26.357 2.1-10.357-8.49-4.149 1.68-8.361 39 20.111-1.67 8.306-43.75 3.323 1.72-8.381 9.42-.547-.01.055zm8.08-7.437-1.42 7.055 13.82-.775.04-.164-12.44-6.116zm-5.86 31.277-16.31-4.576 2.2-7.872 40.6 11.468-3.41 12.173c-1.13 4.028-3.07 6.903-5.85 8.647-2.75 1.723-6.03 2.045-9.78.981-2.1-.591-3.79-1.601-5.05-2.994-1.27-1.393-2.11-3.17-2.49-5.262-1.3 1.906-2.91 3.113-4.8 3.603-1.89.489-4.08.37-6.52-.344l-2.97-.825c-1.15-.307-2.38-.52-3.68-.604-1.29-.083-2.37.125-3.11.599l-.6-.161 2.3-8.165c.8-.46 1.86-.613 3.27-.411s2.77.479 4.1.865l2.86.796c2.05.576 3.77.598 5.17.066s2.3-1.607 2.73-3.192l1.32-4.738.02-.054zm6.16 1.709-1.2 4.246c-.45 1.694-.33 3.102.44 4.274.77 1.172 2.09 2.025 3.95 2.522 1.87.533 3.52.506 4.87-.041 1.38-.566 2.26-1.677 2.77-3.355l1.21-4.302-12.03-3.399-.01.055zm-15.99 29.967-15.9-5.783 2.82-7.676 39.63 14.428-4.32 11.87c-1.43 3.92-3.57 6.683-6.46 8.164-2.87 1.515-6.14 1.604-9.82.266-2.05-.755-3.66-1.859-4.81-3.367-1.14-1.508-1.86-3.31-2.08-5.447-1.45 1.807-3.14 2.876-5.07 3.207-1.94.331-4.09.048-6.49-.829l-2.87-1.064c-1.12-.417-2.3-.704-3.62-.912-1.32-.207-2.35-.074-3.15.386l-.59-.216 2.89-7.949c.8-.46 1.89-.49 3.27-.178 1.38.311 2.71.697 4.05 1.172l2.8 1.015c2 .74 3.75.886 5.15.443 1.41-.442 2.43-1.399 2.97-3.009l1.68-4.616-.08.095zm6 2.166-1.49 4.139c-.61 1.649-.56 3.098.1 4.33.67 1.232 1.94 2.159 3.76 2.821 1.86.676 3.48.758 4.89.315 1.4-.442 2.4-1.523 3-3.118l1.54-4.213-11.74-4.259-.06-.015zm-13.4 34.936-.08.184 13.77 14.171-3.65 8.156-19.74-22.359-13.72-6.164 3.34-7.421 14.21 6.386 29.25-.124-3.65 8.156-19.72-.895-.01-.09zm-26.67 33.78-13.22-7.7 4.09-7.072 36.47 21.249-7.14 12.199c-2.12 3.675-4.89 5.92-8.3 6.823-3.4.903-6.82.338-10.31-1.711-3.49-2.048-5.7-4.746-6.58-8.116-.88-3.369-.25-6.918 1.86-10.539l2.99-5.142.14.009zm5.55 3.215-2.99 5.142c-.92 1.596-1.07 3.11-.42 4.63.66 1.465 1.87 2.755 3.61 3.779 1.8 1.039 3.5 1.492 5.15 1.321 1.63-.151 2.92-1.034 3.86-2.596l2.99-5.142-12.2-7.134zm-35.58 43.075c-4.07-2.82-6.48-6.187-7.16-10.088-.68-3.901.29-7.739 2.96-11.591 2.64-3.831 5.91-6.087 9.79-6.804 3.88-.717 7.83.372 11.91 3.192l9.64 6.713c4.08 2.82 6.46 6.152 7.2 10.068.72 3.881-.23 7.754-2.89 11.551-2.63 3.831-5.94 6.107-9.87 6.809-3.94.702-7.91-.332-11.98-3.151l-9.68-6.694.08-.005zm14.39.05c2.55 1.765 4.8 2.544 6.82 2.441 1.99-.138 3.67-1.153 4.99-3.113 1.37-1.945 1.74-3.867 1.12-5.729-.58-1.882-2.14-3.706-4.71-5.451l-9.76-6.742c-2.56-1.8-4.84-2.613-6.82-2.53-1.98.083-3.64 1.132-5.01 3.078-1.37 1.945-1.74 3.867-1.14 5.784.6 1.917 2.16 3.74 4.72 5.54l9.73 6.762.06-.04zm-17.62 36.821 6.22-7.702-27.87-22.516 5.17-6.402 27.87 22.516 6.06-7.512 5 4.036-17.46 21.58-5.01-4.035.02.035zm-21.41 23.214 6.75-7.27-26.228-24.385 5.588-5.997 26.23 24.389 6.58-7.078 4.68 4.359-18.91 20.342-4.69-4.36zm-39.613 8.97c-3.389-3.63-4.979-7.42-4.823-11.39.176-3.94 1.951-7.5 5.379-10.681 3.428-3.18 7.082-4.689 10.996-4.548 3.914.142 7.593 2.035 10.983 5.666l8.028 8.623c3.39 3.63 4.98 7.42 4.85 11.37-.12 3.95-1.89 7.51-5.29 10.67-3.39 3.16-7.097 4.66-11.081 4.56-3.969-.16-7.648-2.05-11.017-5.65l-8.025-8.62zm14.037 3.12c2.088 2.26 4.118 3.53 6.088 3.83 1.971.29 3.818-.36 5.558-1.97 1.75-1.61 2.52-3.39 2.35-5.37-.17-1.98-1.34-4.08-3.43-6.34l-8.06-8.69c-2.109-2.29-4.158-3.6-6.114-3.95-1.936-.31-3.778.34-5.527 1.95-1.749 1.61-2.554 3.41-2.382 5.39.173 1.98 1.324 4.13 3.432 6.42l8.065 8.69.02.04zm-41.342 18.05 11.666-8.91 3.872 5.11-11.666 8.91-3.872-5.11zm-50.343 15.26 6.945-4.29 9.248 14.98 11.575-7.15-9.248-14.98 6.945-4.28 22.204 35.9-6.945 4.29-9.603-15.52-11.575 7.15 9.603 15.51-6.945 4.29-22.204-35.9zm-17.918 19.67 9.403-4.83-2.04-9.21 7.576-3.91 8.641 43.03-7.507 3.88-29.931-32.09 7.631-3.9 6.317 7.02-.09.01zm10.816 1.7-6.413 3.28 9.237 10.33.139-.08-2.997-13.51.034-.02zm-28.107 14.98-6.597-15.59 7.53-3.19 16.4 38.88-11.655 4.93c-3.862 1.63-7.337 1.93-10.413.84-3.075-1.09-5.347-3.43-6.871-7.03-.838-2.01-1.134-3.96-.815-5.81.299-1.88 1.144-3.61 2.571-5.22-2.301.17-4.248-.32-5.806-1.5-1.558-1.18-2.83-2.98-3.813-5.32l-1.208-2.82c-.442-1.08-1.062-2.15-1.825-3.24-.764-1.08-1.576-1.77-2.435-2.05l-.231-.56 7.793-3.3c.859.29 1.642 1.08 2.376 2.27.735 1.2 1.331 2.47 1.892 3.76l1.148 2.71c.817 1.98 1.92 3.32 3.183 4.07 1.263.75 2.682.81 4.237.14l4.525-1.92.014-.05zm2.502 5.85-4.055 1.7c-1.624.7-2.621 1.69-3.062 3.01-.44 1.32-.275 2.88.477 4.67.772 1.81 1.78 3.08 3.078 3.81 1.298.72 2.731.73 4.321.04l4.124-1.73-4.849-11.52-.034.02zm-33.503 6.27-5.39-16.05 7.746-2.58 13.439 39.99-11.996 4.02c-3.987 1.33-7.444 1.34-10.406.05-2.983-1.32-5.102-3.8-6.329-7.52-.699-2.09-.797-4.02-.354-5.89.443-1.87 1.438-3.51 2.959-5.03-2.312-.01-4.214-.67-5.688-1.94-1.44-1.29-2.609-3.16-3.418-5.6l-.981-2.9a16.193 16.193 0 0 0-1.582-3.38c-.66-1.14-1.422-1.9-2.267-2.24l-.196-.58 8.043-2.71c.81.36 1.558 1.18 2.209 2.47.65 1.28 1.157 2.56 1.594 3.88l.941 2.83c.679 2.05 1.642 3.48 2.856 4.31 1.214.82 2.604.99 4.184.44l4.67-1.59-.034.02zm2.045 6.03-4.18 1.4c-1.669.54-2.776 1.51-3.291 2.77-.515 1.27-.473 2.86.12 4.69.614 1.86 1.572 3.2 2.786 4.03 1.249.8 2.673.95 4.322.36l4.215-1.41-3.972-11.84zm-35.673 11.31-.138.08-2.516 19.56-8.646 2.22 5.205-29.38-3.741-14.55 7.888-2.02 3.862 15.09 18.337 22.8-8.646 2.22-11.585-15.98-.02-.04zm-42.9.16-2.216-15.12 8.1-1.17 6.075 41.8-13.979 2.02c-4.173.61-7.693-.13-10.491-2.25-2.797-2.13-4.502-5.16-5.08-9.12-.599-4 .165-7.4 2.256-10.17 2.09-2.78 5.247-4.51 9.421-5.12l5.879-.85.035-.02zm.936 6.34-5.879.85c-1.829.27-3.105 1.1-3.877 2.56-.738 1.44-.993 3.16-.711 5.17.301 2.04 1.008 3.67 2.154 4.85 1.146 1.19 2.627 1.67 4.456 1.4l5.879-.85-2.022-13.98zm-56.016-1.05c-.315-4.95.808-8.92 3.444-11.87 2.635-2.95 6.264-4.59 10.885-4.9 4.622-.31 8.436.85 11.404 3.44 2.968 2.58 4.612 6.38 4.927 11.33l.777 11.74c.315 4.95-.808 8.92-3.389 11.89-2.581 2.96-6.189 4.63-10.866 4.93-4.641.28-8.47-.83-11.478-3.49-3.008-2.65-4.667-6.4-4.982-11.34l-.777-11.75.055.02zm8.92 11.29c.202 3.07.966 5.35 2.327 6.83 1.361 1.48 3.174 2.14 5.529 1.98 2.356-.16 4.113-1.04 5.197-2.68 1.084-1.64 1.534-3.98 1.367-7.07l-.783-11.83c-.187-3.12-.971-5.44-2.278-6.9-1.326-1.5-3.139-2.16-5.529-1.98-2.356.16-4.113 1.03-5.231 2.69-1.139 1.63-1.604 4.02-1.362 7.16l.783 11.83-.02-.03zm-39.746 9.14 9.931.08.286-35.81 8.209.06-.285 35.82 9.643.06-.046 6.4-27.783-.21.045-6.4zm-31.473-2.29 9.899.75 2.712-35.69 8.172.64-2.711 35.69 9.611.73-.478 6.37-27.682-2.12.477-6.37zm-31.607-25.39c.727-4.9 2.695-8.53 5.869-10.87s7.084-3.17 11.695-2.46c4.612.71 8.077 2.64 10.418 5.81 2.341 3.17 3.138 7.19 2.431 12.13l-1.739 11.62c-.727 4.9-2.695 8.53-5.849 10.91-3.154 2.37-7.064 3.2-11.655 2.52-4.611-.71-8.077-2.63-10.472-5.82-2.396-3.19-3.178-7.26-2.431-12.13l1.739-11.62-.006-.09zm6.279 12.95c-.463 3.04-.194 5.43.806 7.16.999 1.73 2.656 2.76 4.989 3.12 2.333.36 4.255-.15 5.643-1.5 1.422-1.38 2.365-3.58 2.827-6.62l1.768-11.74c.477-3.09.223-5.53-.757-7.23-.98-1.69-2.621-2.78-4.989-3.12-2.333-.36-4.255.15-5.678 1.52-1.422 1.38-2.399 3.61-2.876 6.7l-1.768 11.73.035-.02zm-39.966-21.07 14.242 3.55-1.544 6.21-14.242-3.56 1.544-6.2zm-43.337-29.8 7.671 2.73-5.903 16.57 12.798 4.57 5.903-16.56 7.691 2.76-14.167 39.77-7.691-2.77 6.153-17.17-12.798-4.58-6.118 17.16-7.671-2.73 14.166-39.77-.034.02zm-26.551-1.75 9.613 4.33 5.919-7.34 7.789 3.49-28.262 33.59-7.734-3.48 6.422-43.42 7.809 3.52-1.556 9.31zm5.445 9.51-6.556-2.96-2.315 13.67.184.07 8.687-10.78zm-29.228-12.64 8.083-14.87 7.185 3.89-20.171 37.04-11.113-6.05c-3.685-1.98-6.043-4.55-7.123-7.62-1.08-3.07-.683-6.3 1.206-9.75 1.048-1.94 2.416-3.33 4.044-4.27 1.627-.94 3.555-1.36 5.693-1.26-1.59-1.71-2.396-3.51-2.425-5.48-.029-1.96.562-4.06 1.772-6.28l1.486-2.71a16.88 16.88 0 0 0 1.423-3.45c.371-1.28.416-2.32.095-3.2l.29-.53 7.429 4.07c.321.87.207 1.95-.322 3.28-.53 1.32-1.1 2.57-1.779 3.79l-1.402 2.61c-1.033 1.89-1.418 3.55-1.203 5.04.195 1.46 1.034 2.59 2.516 3.4l4.316 2.35zm-3.051 5.6-3.888-2.1c-1.556-.86-2.981-1-4.278-.53-1.297.47-2.414 1.58-3.368 3.28-.935 1.74-1.305 3.34-1.04 4.76.249 1.47 1.122 2.58 2.679 3.44l3.908 2.13 5.987-10.98zm-25.739-22.27 9.197-14.22 6.86 4.44-22.901 35.43-10.606-6.85c-3.522-2.26-5.692-4.98-6.545-8.13-.832-3.13-.202-6.35 1.931-9.62 1.197-1.84 2.66-3.15 4.367-3.95 1.708-.8 3.627-1.08 5.756-.83-1.452-1.79-2.14-3.7-2.005-5.63.115-1.96.87-4.01 2.23-6.14l1.655-2.57c.64-.97 1.181-2.11 1.681-3.32.481-1.25.58-2.28.328-3.19l.31-.51 7.119 4.57c.232.89.029 1.97-.576 3.25a33.624 33.624 0 0 1-2.037 3.67l-1.606 2.49c-1.182 1.79-1.71 3.44-1.585 4.94.106 1.46.841 2.65 2.239 3.55l4.139 2.69.049-.07zm-3.458 5.37-3.691-2.4c-1.473-.95-2.888-1.24-4.225-.84-1.338.4-2.534 1.37-3.583 2.99-1.064 1.68-1.563 3.22-1.403 4.69.141 1.45.95 2.69 2.402 3.6l3.746 2.41 6.788-10.47-.034.02zm-31.1-20.84-.15-.1-16.888 10.26-7.132-5.39 26.215-14.26 9.044-12.01 6.495 4.93-9.394 12.44-6.419 28.55-7.132-5.39 5.271-19.02.09-.01zm-26.882-33.52 10.456-11.17 5.963 5.61-28.86 30.8-10.291-9.67c-3.093-2.88-4.685-6.12-4.805-9.6-.085-3.51 1.21-6.7 3.989-9.65 2.78-2.94 5.878-4.45 9.365-4.57 3.486-.12 6.796 1.29 9.855 4.19l4.328 4.06zm-4.393 4.7-4.329-4.05c-1.33-1.27-2.81-1.75-4.421-1.42-1.611.33-3.1 1.19-4.462 2.67-1.432 1.51-2.233 3.09-2.459 4.69-.206 1.65.346 3.08 1.676 4.35l4.329 4.06 9.666-10.3zm-34.038-44.395c3.67-3.32 7.497-4.929 11.417-4.699 3.954.211 7.504 2.041 10.629 5.454 3.146 3.449 4.621 7.123 4.41 11.078-.21 3.954-2.143 7.564-5.794 10.918l-8.714 7.944c-3.671 3.32-7.463 4.91-11.432 4.75-3.935-.18-7.499-1.95-10.61-5.42-3.145-3.448-4.605-7.177-4.43-11.111.191-3.989 2.104-7.634 5.775-10.954l8.714-7.94.035-.02zm-3.281 13.993c-2.277 2.054-3.553 4.083-3.881 6.074-.329 1.99.319 3.833 1.895 5.602 1.61 1.746 3.379 2.576 5.358 2.406 1.944-.16 4.061-1.287 6.374-3.361l8.783-7.981c2.327-2.128 3.657-4.143 4.005-6.099.349-1.956-.299-3.798-1.875-5.567-1.61-1.749-3.379-2.575-5.378-2.437-1.998.138-4.116 1.268-6.463 3.362l-8.783 7.981-.035.02zm-31.874-25.376 6.131 7.82 28.199-22.099 5.064 6.451-28.199 22.099 5.956 7.598-5.046 3.976-17.152-21.869 5.047-3.976zm-17.89-26.108 5.562 8.195 29.627-20.106 4.619 6.8-29.627 20.107 5.443 7.987-5.302 3.615-15.623-22.983 5.301-3.615zm.137-40.071c4.255-2.549 8.309-3.365 12.113-2.375 3.838.97 6.945 3.471 9.333 7.449 2.389 3.978 3.126 7.893 2.156 11.732-.935 3.819-3.574 7.005-7.829 9.554l-10.082 6.052c-4.254 2.548-8.273 3.345-12.126 2.429-3.819-.935-6.96-3.417-9.349-7.394-2.389-3.978-3.091-7.914-2.141-11.787.97-3.839 3.589-7.06 7.809-9.588l10.082-6.052.034-.02zm-6.002 13.117c-2.647 1.575-4.316 3.323-4.992 5.191-.711 1.888-.434 3.807.78 5.83 1.18 2.044 2.807 3.182 4.738 3.407 1.93.225 4.254-.47 6.9-2.044l10.186-6.112c2.681-1.594 4.405-3.328 5.101-5.162.731-1.853.489-3.792-.726-5.815-1.179-2.044-2.807-3.182-4.792-3.422-1.985-.239-4.308.456-6.989 2.05l-10.186 6.112-.02-.035zm-8.624-44.849 6.087 13.342-5.842 2.679-6.086-13.341 5.806-2.66.035-.02zm-3.777-52.45 2.648 7.706-16.64 5.729 4.427 12.868 16.641-5.729 2.669 7.742-39.918 13.718-2.669-7.741 17.255-5.945-4.428-12.868-17.255 5.945-2.648-7.707 39.918-13.718zm-15.203-21.933 2.621 10.217 9.444.043 2.091 8.259-43.859-1.185-2.106-8.205 37.932-22.038 2.11 8.294-8.253 4.58.02.035zm-4.046 10.187-1.763-6.972-12.102 6.711.08.138 13.819.103-.034.02zm-8.338-30.837 16.683-2.936 1.415 8.049-41.559 7.277-2.199-12.446c-.713-4.114-.222-7.583 1.531-10.304 1.734-2.756 4.534-4.465 8.4-5.127 2.146-.362 4.091-.192 5.835.51 1.745.702 3.253 1.955 4.521 3.671.347-2.279 1.261-4.054 2.798-5.31 1.537-1.257 3.513-2.075 6.031-2.512l3.013-.539a16.761 16.761 0 0 0 3.592-1.058c1.242-.487 2.063-1.145 2.536-1.926l.584-.107 1.452 8.352c-.473.781-1.423 1.376-2.76 1.778-1.372.423-2.715.737-4.078 1.015l-2.924.534c-2.092.377-3.661 1.098-4.688 2.199-.992 1.08-1.358 2.446-1.063 4.077l.865 4.857.015-.054zm-6.295 1.094-.763-4.362c-.301-1.72-1.055-2.947-2.264-3.68-1.208-.734-2.742-.911-4.64-.6-1.933.331-3.413 1.047-4.385 2.162-.993 1.081-1.318 2.516-1.038 4.201l.784 4.397 12.321-2.173-.015.055zm1.42-33.931 16.868-1.657.81 8.122-42 4.114-1.222-12.594c-.431-4.185.353-7.547 2.291-10.189 1.957-2.608 4.842-4.089 8.724-4.483 2.192-.204 4.128.11 5.808.941 1.7.866 3.105 2.179 4.254 4.009.526-2.289 1.589-3.965 3.152-5.098 1.617-1.118 3.652-1.832 6.201-2.056l3.064-.292a17.636 17.636 0 0 0 3.662-.775c1.248-.397 2.163-.972 2.691-1.738l.605-.072.811 8.444c-.547.732-1.537 1.257-2.88 1.57-1.377.334-2.78.544-4.133.678l-2.941.266c-2.137.218-3.731.816-4.818 1.812-1.087.997-1.562 2.334-1.391 3.99l.474 4.899-.03.109zm-6.341.613-.407-4.383c-.176-1.745-.827-3.032-1.986-3.841-1.159-.808-2.684-1.129-4.607-.942-1.959.208-3.464.8-4.531 1.831-1.067 1.032-1.522 2.403-1.365 4.113l.446 4.453 12.45-1.231zm-3.024-37.23-.011-.178-18.522-6.808-.214-8.928 27.482 11.61 15.028-.364.22 8.139-15.563.396-26.341 12.761-.214-8.928 18.169-7.72-.034.02zm9.435-41.883 15.213 1.237-.657 8.139-42.094-3.406 1.142-14.098c.339-4.213 1.847-7.439 4.54-9.732 2.658-2.274 6.022-3.246 10.036-2.932 4.015.315 7.186 1.809 9.425 4.488 2.239 2.678 3.197 6.097 2.879 10.344l-.47 5.905-.014.055zm-6.391-.512.469-5.905c.141-1.836-.411-3.273-1.622-4.329-1.21-1.056-2.859-1.674-4.894-1.838-2.069-.145-3.789.155-5.223 1.03-1.42.819-2.198 2.192-2.338 4.028l-.47 5.905 14.098 1.143-.02-.034zm13.511-54.258c4.884.782 8.534 2.785 10.805 5.999 2.306 3.194 3.098 7.124 2.335 11.721-.763 4.597-2.687 8.063-5.881 10.369-3.194 2.305-7.233 3.067-12.138 2.251l-11.615-1.884c-4.885-.782-8.48-2.77-10.821-5.944-2.34-3.174-3.112-7.07-2.403-11.681.763-4.597 2.721-8.083 5.95-10.409 3.229-2.326 7.268-3.088 12.152-2.306l11.616 1.884zm-13.013 6.173c-3.058-.497-5.408-.249-7.194.737-1.732.999-2.816 2.641-3.177 4.974-.396 2.353.093 4.241 1.469 5.663 1.341 1.443 3.547 2.386 6.605 2.883l11.705 1.878c3.092.477 5.517.278 7.234-.667 1.717-.945 2.801-2.587 3.162-4.92.396-2.353-.093-4.241-1.454-5.718-1.341-1.442-3.568-2.42-6.68-2.932l-11.705-1.878.035-.02zm-.084-40.774-2.268 9.668 34.858 8.229-1.904 7.98-34.858-8.229-2.229 9.415-6.252-1.471 6.367-27.043 6.251 1.471.035-.02zm9.219-30.26-2.923 9.492L281.74 557.9l-2.415 7.814-34.229-10.578-2.85 9.219-6.135-1.908 8.19-26.525 6.134 1.908zm31.757-25.216c4.641 1.8 7.743 4.535 9.322 8.149 1.579 3.614 1.532 7.612-.18 11.926-1.691 4.347-4.327 7.301-7.941 8.879-3.614 1.579-7.741 1.468-12.347-.352l-10.972-4.287c-4.606-1.82-7.723-4.5-9.337-8.094-1.613-3.594-1.567-7.593.125-11.94 1.692-4.348 4.362-7.322 8.011-8.92 3.648-1.599 7.776-1.488 12.362.298l10.971 4.287-.014.054zm-14.028 3.296c-2.862-1.118-5.244-1.405-7.161-.806-1.917.598-3.285 1.988-4.138 4.19-.853 2.201-.79 4.15.225 5.827 1.014 1.677 2.98 3.082 5.842 4.201l11.046 4.336c2.917 1.133 5.319 1.455 7.236.856 1.917-.599 3.27-1.934 4.158-4.155.853-2.202.77-4.185-.21-5.883-1-1.731-2.966-3.136-5.882-4.269l-11.047-4.337-.069.04zm29.37-34.228-6.633 13.066-5.727-2.882 6.633-13.065 5.727 2.881zm38.738-35.757-4.389 6.875-14.829-9.449-7.319 11.476 14.829 9.449-4.389 6.874-35.617-22.66 4.368-6.91 15.406 9.808 7.32-11.476-15.386-9.773 4.389-6.875 35.617 22.661zm7.609-25.451-6.356 8.426 5.856 7.425-5.128 6.793-26.417-35.038 5.114-6.739 40.875 15.931-5.163 6.814-8.727-3.598-.054-.014zm-10.487 3.191 4.349-5.744-12.806-5.305-.099.149 8.556 10.9zm18.932-25.754 12.679 11.244-5.419 6.13-31.598-27.937 8.39-9.462c2.803-3.142 5.762-4.896 9.039-5.218 3.277-.322 6.298.751 9.231 3.352 1.629 1.461 2.713 3.098 3.251 4.911.539 1.813.513 3.768-.043 5.844 2.009-1.16 3.957-1.545 5.898-1.142 1.941.403 3.831 1.436 5.743 3.149l2.291 2.049c.872.789 1.882 1.499 3.05 2.164 1.169.664 2.187.908 3.094.8l.453.385-5.621 6.339c-.907.108-1.95-.259-3.144-1.048a29.244 29.244 0 0 1-3.325-2.559l-2.197-1.965c-1.608-1.426-3.159-2.193-4.618-2.321-1.459-.127-2.751.434-3.877 1.684l-3.272 3.69-.005-.089zm-4.786-4.21 2.937-3.312c1.174-1.325 1.649-2.661 1.494-4.049-.189-1.369-1.004-2.699-2.443-3.993-1.494-1.308-2.95-1.991-4.444-2.098-1.473-.073-2.8.508-3.94 1.813l-2.971 3.332 9.347 8.272.02.035zm27.425-20.082 11.82 12.155-5.857 5.691-29.392-30.273 9.092-8.805c3.013-2.94 6.131-4.418 9.385-4.541 3.253-.124 6.255 1.237 8.931 4.033 1.51 1.576 2.49 3.273 2.871 5.131.38 1.859.245 3.784-.475 5.816 2.088-1.021 4.081-1.248 5.979-.681 1.877.532 3.723 1.73 5.482 3.577l2.158 2.218c.822.864 1.783 1.649 2.902 2.388 1.085.759 2.108 1.092 3.036 1.018l.438.44-6.06 5.9c-.912.019-1.941-.403-3.051-1.286s-2.151-1.806-3.108-2.824l-2.063-2.134c-1.49-1.541-2.977-2.437-4.441-2.654-1.465-.217-2.782.221-3.982 1.421l-3.556 3.439-.109-.029zm-4.43-4.554 3.165-3.075c1.27-1.241 1.854-2.548 1.788-3.942-.066-1.393-.776-2.784-2.132-4.172-1.375-1.422-2.802-2.215-4.266-2.431-1.465-.217-2.831.295-4.066 1.516l-3.2 3.094 8.691 8.975.02.035zm27.236-25.608.138-.08-6.215-18.762 6.839-5.75 8.016 28.76 9.67 11.55-6.261 5.231-10.014-11.905-26.381-12.662 6.839-5.75 17.354 9.423.015-.055zm38.72-18.753 8.519 12.677-6.785 4.563-23.55-35.031 11.71-7.869c3.531-2.362 6.975-3.196 10.421-2.507 3.445.69 6.272 2.706 8.514 6.03 2.262 3.358 3.056 6.732 2.367 10.178-.689 3.445-2.774 6.312-6.306 8.674l-4.925 3.305.035-.02zm-3.581-5.321 4.926-3.306c1.533-1.023 2.33-2.361 2.378-3.959.082-1.617-.466-3.287-1.625-4.973-1.178-1.721-2.483-2.861-4.058-3.43-1.575-.568-3.067-.353-4.6.671l-4.925 3.305 7.869 11.712.035-.02zm50.853-23.172c2.41 4.335 3.069 8.434 1.969 12.209-1.099 3.775-3.674 6.832-7.766 9.102-4.092 2.27-7.998 2.863-11.773 1.763-3.775-1.099-6.892-3.779-9.302-8.114l-5.706-10.282c-2.41-4.335-3.083-8.38-2.004-12.189 1.044-3.79 3.62-6.847 7.677-9.097 4.058-2.25 8.018-2.828 11.862-1.769 3.81 1.08 6.947 3.794 9.357 8.129l5.706 10.283-.02-.035zm-12.891-6.412c-1.505-2.686-3.15-4.415-5.023-5.181-1.873-.765-3.797-.578-5.861.567-2.043 1.179-3.241 2.703-3.555 4.639-.314 1.936.292 4.264 1.817 6.986l5.766 10.386c1.525 2.722 3.19 4.485 4.994 5.291 1.839.786 3.762.598 5.826-.547 2.043-1.179 3.276-2.722 3.57-4.693.294-1.971-.278-4.319-1.803-7.041l-5.765-10.387.034-.02zm31.706-25.463-8.954 4.246 15.343 32.334-7.439 3.511-15.309-32.355-8.746 4.126-2.749-5.801 25.085-11.897 2.749 5.802.02.034zm29.293-11.647-9.225 3.617 13.111 33.346-7.63 3.02-13.111-33.346-8.997 3.532-2.329-5.953 25.852-10.169 2.329 5.953zm39.584 9.056c1.484 4.731 1.284 8.864-.585 12.345-1.869 3.48-4.983 5.924-9.451 7.303-4.468 1.379-8.422 1.169-11.883-.666-3.495-1.815-5.97-5.143-7.455-9.874l-3.488-11.239c-1.484-4.731-1.285-8.864.53-12.359 1.815-3.496 4.963-5.96 9.397-7.319 4.468-1.379 8.442-1.133 11.957.716 3.515 1.85 6.025 5.157 7.49 9.853l3.488 11.24zm-11.285-8.909c-.911-2.937-2.18-4.975-3.842-6.094-1.662-1.119-3.592-1.343-5.861-.634-2.269.71-3.751 1.981-4.447 3.815-.696 1.833-.552 4.243.359 7.181l3.494 11.329c.931 2.972 2.185 5.065 3.812 6.204 1.627 1.138 3.558 1.363 5.827.654 2.268-.71 3.751-1.981 4.481-3.835.731-1.853.621-4.284-.33-7.29l-3.528-11.31.035-.02zm45.051 1.652-14.351 2.975-1.308-6.264 14.351-2.975 1.308 6.264z"/></g><defs><radialGradient id="b" cx="0" cy="0" r="1" gradientTransform="rotate(60 -251.594 939.816) scale(503.189)" gradientUnits="userSpaceOnUse"><stop offset=".535" stop-color="#997D39" stop-opacity="0"/><stop offset="1" stop-color="#FFD05F"/></radialGradient><filter id="a" width="1427.61" height="1426.99" x="-25.7" y="-25.7" color-interpolation-filters="sRGB" filterUnits="userSpaceOnUse"><feFlood flood-opacity="0" result="BackgroundImageFix"/><feColorMatrix in="SourceAlpha" result="hardAlpha" values="0 0 0 0 0 0 0 0 0 0 0 0 0 0 0 0 0 0 127 0"/><feOffset/><feGaussianBlur stdDeviation="12.85"/><feColorMatrix values="0 0 0 0 1 0 0 0 0 0.813856 0 0 0 0 0.370833 0 0 0 1 0"/><feBlend in2="BackgroundImageFix" result="effect1_dropShadow_192_147"/><feBlend in="SourceGraphic" in2="effect1_dropShadow_192_147" result="shape"/></filter></defs></svg>