<svg xmlns="http://www.w3.org/2000/svg" width="809" height="808" fill="none"><g filter="url(#a)"><circle cx="404.094" cy="403.91" r="294.5" stroke="#FFD05F" stroke-opacity=".53" stroke-width="2" transform="rotate(-30 404.094 403.91)"/><mask id="c" fill="#fff"><path d="M660.004 256.161c81.6 141.335 33.175 322.06-108.16 403.66-141.336 81.6-322.061 33.175-403.661-108.16C66.583 410.325 115.008 229.6 256.344 148c141.335-81.6 322.06-33.175 403.66 108.161zm-358.275 206.85c32.64 56.534 104.93 75.904 161.465 43.264 56.534-32.64 75.904-104.93 43.264-161.465-32.64-56.534-104.93-75.904-161.464-43.264-56.535 32.64-75.905 104.93-43.265 161.465z"/></mask><path stroke="url(#b)" stroke-dasharray="6 124" stroke-miterlimit="3.994" stroke-opacity=".53" stroke-width="246" d="M660.004 256.161c81.6 141.335 33.175 322.06-108.16 403.66-141.336 81.6-322.061 33.175-403.661-108.16C66.583 410.325 115.008 229.6 256.344 148c141.335-81.6 322.06-33.175 403.66 108.161zm-358.275 206.85c32.64 56.534 104.93 75.904 161.465 43.264 56.534-32.64 75.904-104.93 43.264-161.465-32.64-56.534-104.93-75.904-161.464-43.264-56.535 32.64-75.905 104.93-43.265 161.465z" mask="url(#c)"/><circle cx="404.093" cy="403.91" r="231.5" stroke="#FFD05F" stroke-opacity=".35" stroke-width="2" transform="rotate(-30 404.093 403.91)"/><circle cx="404.094" cy="403.911" r="165.5" stroke="#FFD05F" stroke-opacity=".2" stroke-width="2" transform="rotate(-30 404.094 403.911)"/><circle cx="404.094" cy="403.91" r="84.5" stroke="#FFD05F" stroke-opacity=".1" stroke-width="2" transform="rotate(-30 404.094 403.91)"/><path fill="#fff" fill-opacity=".35" d="m394.699 280.326-2.353.246-.534-5.083-3.93.417.535 5.083-2.363.251-1.29-12.197 2.363-.252.561 5.269 3.93-.418-.561-5.268 2.353-.246 1.289 12.198zm7.154-2.869-3.065.08-.631 2.67-2.473.06 3.172-12.346 2.457-.064 3.78 12.169-2.483.065-.767-2.628.01-.006zm-2.617-1.815 2.089-.053-1.117-3.862-.052.003-.92 3.912zm9.261-.358-.251 4.906-2.375-.118.634-12.235 3.664.191c1.216.063 2.154.433 2.818 1.096.67.673.974 1.57.917 2.703-.035.637-.205 1.178-.521 1.629-.317.45-.759.8-1.327 1.047.624.244 1.068.618 1.322 1.128.254.51.36 1.134.331 1.874l-.051.888a5.79 5.79 0 0 0 .06 1.079c.054.371.18.66.378.841l-.005.177-2.458-.123c-.188-.187-.294-.487-.329-.896a9.577 9.577 0 0 1-.022-1.222l.042-.856c.031-.621-.077-1.109-.312-1.469-.245-.355-.6-.552-1.08-.57l-1.425-.076-.01.006zm.097-1.853 1.274.069c.511.026.904-.106 1.188-.404.284-.298.44-.724.47-1.277.033-.57-.073-1.032-.328-1.381-.255-.348-.62-.54-1.132-.566l-1.299-.068-.189 3.622.016.005zm9.517 2.593-.618 4.876-2.36-.301 1.539-12.154 3.644.458c1.201.152 2.122.585 2.737 1.303.616.718.853 1.64.713 2.767-.083.624-.295 1.163-.644 1.579-.344.427-.82.741-1.401.943.611.291 1.02.698 1.235 1.232.218.517.277 1.154.181 1.893l-.108.881a4.8 4.8 0 0 0-.019 1.084c.034.383.135.673.318.876l-.02.173-2.444-.307c-.173-.208-.254-.51-.263-.92a8.717 8.717 0 0 1 .072-1.222l.11-.855c.072-.619.011-1.12-.198-1.482-.215-.372-.556-.591-1.033-.651l-1.421-.185-.02.012zm.228-1.835 1.274.163c.509.068.913-.045 1.214-.313.302-.268.49-.685.561-1.235.075-.567-.005-1.03-.22-1.403-.214-.372-.576-.579-1.084-.647l-1.29-.168-.455 3.603zm10.749 1.545.048.013 3.124-4.808 2.55.513-5.063 7.027-.861 4.292-2.323-.469.89-4.43-1.923-8.278 2.549.513 1.015 5.638-.006-.011zm11.265 5.366-1.322 4.237-2.259-.707 3.662-11.704 3.914 1.227c1.177.366 2.001 1.004 2.466 1.902.471.909.526 1.91.177 3.023-.35 1.114-.973 1.916-1.871 2.381-.898.465-1.941.518-3.108.145l-1.649-.51-.01.006zm.56-1.771 1.648.509c.51.162.953.094 1.332-.178.373-.283.655-.7.84-1.263.179-.573.19-1.089.048-1.543-.142-.455-.477-.757-.987-.919l-1.648-.51-1.228 3.914-.005-.01zm14.497 7.294c-.538 1.344-1.338 2.235-2.394 2.683-1.055.449-2.212.419-3.47-.088-1.259-.507-2.106-1.279-2.555-2.334-.448-1.056-.4-2.25.128-3.588l1.277-3.178c.534-1.328 1.328-2.229 2.377-2.687 1.05-.459 2.201-.439 3.46.068 1.258.507 2.112 1.289 2.566 2.354.454 1.066.406 2.26-.122 3.598l-1.277 3.178.01-.006zm-.916-4.071c.331-.821.409-1.523.25-2.076-.163-.562-.557-.966-1.202-1.223-.645-.258-1.211-.24-1.704.045-.493.284-.901.855-1.242 1.682l-1.28 3.194c-.345.843-.429 1.534-.281 2.093.159.552.552.955 1.197 1.213.645.258 1.211.24 1.714-.05.503-.291.917-.852 1.256-1.705l1.281-3.193.011.02zm11.573 2.599-2.595-1.264-4.569 9.344-2.144-1.043 4.569-9.344-2.519-1.228.815-1.677 7.248 3.541-.815 1.677.01-.006zm7.969 4.559-2.495-1.442-5.194 9.007-2.069-1.193 5.193-9.006-2.431-1.4.934-1.612 6.99 4.025-.933 1.611.005.01zm5.076 10.603c-.813 1.193-1.775 1.896-2.912 2.11-1.127.208-2.247-.058-3.369-.818-1.123-.76-1.789-1.703-2.007-2.824-.218-1.122.076-2.284.889-3.478l1.922-2.826c.803-1.188 1.775-1.897 2.896-2.115 1.122-.218 2.251.042 3.374.802 1.122.76 1.788 1.704 2.002 2.841.214 1.137-.081 2.299-.883 3.487l-1.922 2.827.01-.006zm-.028-4.182c.497-.743.733-1.402.683-1.977-.04-.58-.345-1.062-.914-1.444-.575-.392-1.128-.489-1.668-.311-.541.178-1.065.642-1.572 1.39l-1.936 2.848c-.507.749-.753 1.414-.713 1.994.04.581.339 1.052.914 1.444.575.392 1.133.499 1.684.315.551-.184 1.081-.637 1.597-1.391l1.937-2.848-.012-.02zm7.814 10.537-3.275-2.723 1.183-1.434 3.275 2.722-1.189 1.425.006.01zm7.598 13.276-1.657-1.685 3.64-3.591-2.776-2.81-3.64 3.591-1.673-1.69 8.735-8.61 1.673 1.689-3.768 3.718 2.776 2.81 3.767-3.718 1.657 1.686-8.734 8.61zm6.717 3.807-1.973-2.348-2.474 1.173-1.591-1.897 11.633-5.215 1.586 1.888-7.167 10.535-1.597-1.908 1.587-2.244-.004.016zm-.222-3.171 1.34 1.6 2.332-3.278-.023-.04-3.649 1.718zm6.056 7.005-3.996 2.857-1.38-1.926 9.963-7.133 2.141 2.988c.704.988 1.007 1.954.902 2.886-.106.933-.619 1.739-1.543 2.393-.514.363-1.053.568-1.597.6-.545.033-1.104-.1-1.647-.39.2.649.182 1.222-.057 1.736-.24.514-.664.987-1.257 1.423l-.728.528a5.133 5.133 0 0 0-.805.719c-.264.287-.404.555-.424.822l-.14.107-1.436-2c.036-.263.196-.543.492-.821.295-.278.612-.541.947-.775l.704-.5c.504-.358.829-.747.955-1.155.127-.408.056-.81-.229-1.209l-.835-1.168-.03.018zm1.502-1.069.75 1.043c.296.419.652.642 1.05.681.408.033.837-.107 1.29-.436.464-.335.759-.707.886-1.115.126-.408.033-.824-.257-1.234l-.755-1.052-2.948 2.118-.016-.005zm3.9 9.055-4.196 2.557-1.235-2.023 10.466-6.378 1.915 3.132c.63 1.045.861 2.025.688 2.956-.179.921-.757 1.685-1.716 2.278-.547.33-1.084.492-1.641.478-.558-.013-1.083-.179-1.613-.517.154.662.095 1.233-.183 1.728-.277.496-.734.934-1.366 1.326l-.763.467a5.314 5.314 0 0 0-.866.661c-.291.262-.447.526-.483.789l-.151.087-1.276-2.094c.052-.258.234-.524.557-.777a8.558 8.558 0 0 1 1.004-.7l.732-.45c.538-.324.881-.683 1.039-1.082.158-.4.113-.803-.141-1.22l-.745-1.22-.026.002zm1.592-.96.669 1.09c.266.436.598.687 1.003.762.4.064.846-.046 1.323-.335.487-.294.809-.642.962-1.051.148-.394.091-.818-.169-1.244l-.68-1.11-3.098 1.883-.01.005zm5.495 9.355.023.04 5.711-.561 1.184 2.307-8.653.436-3.886 2.002-1.084-2.11 4.023-2.068 5.271-6.664 1.184 2.307-3.773 4.311zm2.843 12.172-4.138 1.612-.862-2.212 11.426-4.437 1.483 3.824c.449 1.149.46 2.189.052 3.108-.412.936-1.163 1.611-2.251 2.024-1.093.43-2.097.433-3.033.021-.925-.418-1.611-1.189-2.06-2.338l-.622-1.612.005.01zm1.729-.676.622 1.612c.191.494.517.802.977.925.46.124.957.078 1.516-.138.56-.215.973-.521 1.235-.927.267-.396.303-.846.106-1.349l-.622-1.612-3.824 1.483-.01.006zm3.343 15.894c-1.386.411-2.576.347-3.587-.196-1.011-.543-1.706-1.469-2.091-2.762-.385-1.294-.313-2.448.23-3.459.542-1.011 1.504-1.714 2.884-2.135l3.272-.976c1.375-.405 2.575-.347 3.58.186 1.005.533 1.711 1.453 2.101 2.756.391 1.304.304 2.454-.239 3.465-.543 1.011-1.509 1.729-2.889 2.15l-3.271.977.01-.006zm2.624-3.258c.859-.255 1.451-.623 1.782-1.096.33-.473.4-1.049.2-1.698-.196-.665-.566-1.095-1.098-1.297-.533-.203-1.228-.177-2.087.078l-3.302.994c-.869.26-1.477.625-1.807 1.097-.337.463-.402 1.023-.206 1.688.196.665.565 1.095 1.104 1.308.538.212 1.244.18 2.113-.08l3.301-.994zm5.168 10.669-.616-2.809-10.158 2.243-.514-2.332 10.157-2.243-.601-2.737 1.817-.406 1.743 7.873-1.818.405-.01.006zm1.399 9.09-.426-2.852-10.283 1.538-.355-2.357 10.283-1.538-.421-2.774 1.841-.272 1.197 7.973-1.841.272.005.01zm-5.141 10.56c-1.44.107-2.588-.209-3.466-.963-.878-.754-1.347-1.798-1.454-3.144-.106-1.347.217-2.459.967-3.321.749-.862 1.833-1.354 3.273-1.461l3.403-.261c1.44-.107 2.588.209 3.46.953.872.743 1.367 1.786 1.464 3.138.107 1.347-.227 2.465-.971 3.337-.753.877-1.848 1.375-3.278 1.476l-3.402.262.004-.016zm3.251-2.615c.886-.069 1.543-.301 1.972-.696.429-.395.615-.932.569-1.616-.052-.694-.311-1.188-.798-1.498-.477-.314-1.166-.44-2.061-.365l-3.429.263c-.912.07-1.575.292-1.994.682-.425.379-.611.916-.559 1.61.052.694.317 1.198.794 1.513.482.325 1.171.45 2.083.38l3.429-.263-.006-.01zm-3.39 12.687.087-4.262 1.86.039-.087 4.262-1.86-.039zm-5.647 14.191.28-2.348 5.074.611.472-3.921-5.074-.611.285-2.364 12.175 1.46-.284 2.364-5.257-.626-.472 3.92 5.256.627-.28 2.348-12.175-1.46zm1.214 7.654.61-3.008-2.466-1.205.489-2.428 11.325 5.841-.485 2.412-12.706.965.499-2.434 2.738-.159-.004.016zm2.347-2.16-.413 2.049 4.014-.225.013-.047-3.614-1.777zm-1.702 9.084-4.737-1.329.638-2.286 11.793 3.33-.99 3.536c-.33 1.17-.894 2.005-1.701 2.511-.797.501-1.749.594-2.84.285-.608-.172-1.099-.465-1.467-.87-.368-.404-.612-.92-.722-1.528-.377.554-.845.904-1.394 1.047-.548.142-1.185.107-1.894-.1l-.863-.24a5.492 5.492 0 0 0-1.067-.175c-.376-.024-.69.036-.905.174l-.175-.047.67-2.371c.231-.134.54-.178.95-.12.409.059.804.139 1.191.251l.831.232c.593.167 1.092.173 1.499.019.407-.155.67-.467.793-.927l.386-1.376.004-.016zm1.788.496-.347 1.234c-.132.491-.097.9.127 1.241.223.34.607.588 1.147.732.545.155 1.023.147 1.414-.012.401-.164.658-.487.805-.974l.352-1.249-3.493-.988-.005.016zm-4.644 8.704-4.617-1.68.818-2.229 11.512 4.19-1.255 3.447c-.416 1.139-1.039 1.941-1.877 2.371-.832.44-1.783.466-2.852.078-.596-.22-1.063-.54-1.396-.978a3.08 3.08 0 0 1-.605-1.582c-.421.525-.912.835-1.474.931-.561.096-1.185.014-1.882-.241l-.836-.309a5.315 5.315 0 0 0-1.051-.264c-.383-.061-.683-.022-.914.112l-.17-.063.839-2.309c.231-.133.548-.142.949-.051.401.09.788.202 1.176.34l.814.295c.58.215 1.087.257 1.496.129.408-.129.704-.407.863-.874l.486-1.341-.024.028zm1.745.629-.433 1.202c-.179.479-.164.899.029 1.257.193.358.563.627 1.09.819.542.197 1.012.221 1.42.092.409-.129.697-.442.872-.906l.447-1.223-3.41-1.237-.015-.004zm-3.892 10.146-.023.053 3.999 4.116-1.06 2.369-5.734-6.494-3.984-1.79.969-2.156 4.128 1.855 8.495-.036-1.059 2.369-5.729-.26-.002-.026zm-7.747 9.81-3.839-2.236 1.188-2.054 10.59 6.171-2.071 3.543c-.618 1.068-1.422 1.72-2.41 1.982-.989.262-1.982.098-2.996-.497s-1.654-1.379-1.911-2.357c-.256-.979-.073-2.009.54-3.061l.868-1.493.041.002zm1.612.934-.867 1.493c-.269.464-.31.904-.123 1.345.192.426.543.8 1.05 1.098.523.301 1.014.433 1.495.383.471-.044.846-.3 1.121-.754l.867-1.493-3.543-2.072zm-10.332 12.51c-1.183-.819-1.882-1.797-2.08-2.93-.198-1.133.084-2.247.859-3.366.766-1.113 1.715-1.768 2.842-1.976 1.127-.208 2.276.108 3.459.927l2.802 1.95c1.184.818 1.877 1.786 2.091 2.923.208 1.128-.068 2.253-.84 3.355-.765 1.113-1.725 1.774-2.868 1.978-1.142.204-2.295-.097-3.478-.915l-2.812-1.944.025-.002zm4.18.015c.738.512 1.392.738 1.978.708.58-.04 1.067-.334 1.449-.904.398-.565.505-1.123.327-1.663-.168-.547-.621-1.077-1.37-1.583l-2.834-1.959c-.744-.522-1.403-.759-1.979-.734-.576.024-1.058.328-1.456.894-.398.565-.505 1.123-.331 1.679.174.557.628 1.087 1.372 1.609l2.824 1.964.02-.011zm-5.118 10.693 1.806-2.237-8.093-6.539 1.501-1.859 8.094 6.539 1.757-2.182 1.455 1.173-5.072 6.267-1.454-1.172.006.01zm-6.219 6.742 1.96-2.11-7.617-7.083 1.623-1.742 7.616 7.083 1.912-2.055 1.361 1.266-5.494 5.907-1.361-1.266zm-11.505 2.605c-.984-1.054-1.445-2.156-1.4-3.308.051-1.143.566-2.178 1.562-3.102.995-.923 2.057-1.361 3.193-1.32 1.137.041 2.206.591 3.19 1.645l2.331 2.504c.984 1.054 1.446 2.156 1.41 3.303-.035 1.147-.55 2.182-1.536 3.1-.985.917-2.062 1.351-3.219 1.322-1.153-.046-2.221-.595-3.2-1.64l-2.331-2.504zm4.077.906c.607.656 1.196 1.026 1.768 1.111.573.086 1.108-.102 1.616-.57.507-.467.731-.986.681-1.56-.05-.575-.388-1.184-.995-1.84l-2.342-2.524c-.612-.665-1.208-1.046-1.776-1.147-.562-.091-1.097.097-1.605.564-.508.468-.742.992-.692 1.567.051.574.385 1.199.997 1.865l2.342 2.524.006.01zm-12.007 5.242 3.388-2.586 1.125 1.483-3.388 2.586-1.125-1.483zm-14.62 4.431 2.017-1.245 2.686 4.351 3.361-2.075-2.686-4.351 2.017-1.245 6.449 10.427-2.017 1.245-2.789-4.506-3.362 2.075 2.789 4.506-2.017 1.245-6.448-10.427zm-5.204 5.714 2.731-1.402-.593-2.676 2.201-1.136 2.509 12.499-2.18 1.125-8.693-9.319 2.216-1.132 1.835 2.039-.026.002zm3.141.493-1.863.955 2.683 2.997.041-.023-.871-3.923.01-.006zm-8.163 4.351-1.916-4.527 2.187-.927 4.763 11.292-3.385 1.431c-1.121.473-2.131.56-3.024.244-.893-.316-1.553-.994-1.996-2.04-.243-.584-.329-1.151-.236-1.687.087-.546.332-1.05.746-1.518-.668.051-1.233-.092-1.686-.434-.452-.343-.822-.867-1.107-1.547l-.351-.817a4.73 4.73 0 0 0-.53-.941c-.222-.315-.458-.514-.707-.598l-.067-.162 2.263-.958c.25.084.477.315.69.661.213.346.386.716.549 1.091l.334.787c.237.573.557.965.924 1.183.367.217.779.234 1.231.04l1.314-.557.004-.016zm.727 1.699-1.178.493c-.472.205-.761.493-.889.875s-.08.837.138 1.355c.225.528.517.895.894 1.107.377.211.794.212 1.255.013l1.198-.504-1.408-3.344-.01.005zm-9.73 1.823-1.566-4.663 2.25-.749 3.903 11.615-3.484 1.166c-1.158.387-2.162.39-3.022.015-.866-.385-1.482-1.103-1.838-2.184-.203-.607-.232-1.168-.103-1.711.129-.544.418-1.019.859-1.462-.671-.001-1.224-.192-1.652-.562-.418-.375-.757-.917-.992-1.626l-.285-.842a4.617 4.617 0 0 0-.46-.982c-.191-.332-.413-.553-.658-.652l-.057-.169 2.336-.785c.235.106.452.342.641.716.189.374.336.745.464 1.127l.273.822c.197.597.477 1.012.829 1.251.353.239.756.288 1.215.13l1.357-.461-.01.006zm.594 1.749-1.214.406c-.485.159-.807.438-.956.806-.15.368-.138.831.035 1.362.178.54.456.93.809 1.169.363.233.776.276 1.255.106l1.224-.411-1.153-3.438zm-10.361 3.286-.04.023-.731 5.679-2.511.645 1.512-8.531-1.086-4.228 2.291-.585 1.121 4.382 5.326 6.622-2.511.645-3.365-4.642-.006-.01zm-12.459.044-.643-4.389 2.352-.339 1.764 12.138-4.059.587c-1.213.177-2.235-.037-3.047-.655-.813-.617-1.308-1.498-1.476-2.648-.174-1.161.048-2.147.655-2.954.608-.806 1.524-1.309 2.737-1.486l1.707-.248.01-.006zm.272 1.842-1.707.248c-.532.079-.902.319-1.127.744-.214.419-.288.918-.206 1.501.088.593.293 1.064.626 1.409.333.344.763.485 1.294.406l1.707-.248-.587-4.06zm-16.268-.304c-.092-1.436.234-2.59 1-3.448.765-.858 1.819-1.332 3.161-1.423 1.342-.091 2.45.249 3.312.998.862.75 1.34 1.856 1.431 3.292l.226 3.41c.091 1.436-.235 2.59-.985 3.452-.749.862-1.797 1.346-3.155 1.433-1.348.081-2.46-.243-3.334-1.013-.874-.769-1.355-1.859-1.447-3.295l-.225-3.411.016.005zm2.59 3.279c.059.891.281 1.554.676 1.983.395.429.922.622 1.606.575.684-.046 1.194-.3 1.509-.777.315-.477.446-1.156.397-2.053l-.227-3.437c-.055-.907-.282-1.58-.662-2.005-.385-.435-.912-.627-1.606-.575-.684.046-1.194.301-1.519.783-.331.473-.466 1.168-.395 2.079l.227 3.437-.006-.01zm-11.543 2.654 2.884.025.083-10.402 2.384.018-.083 10.402 2.801.019-.013 1.859-8.069-.063.013-1.858zm-9.141-.664 2.875.218.788-10.366 2.373.185-.787 10.366 2.791.212-.138 1.851-8.04-.616.138-1.85zm-9.179-7.375c.211-1.423.783-2.477 1.705-3.156.921-.68 2.057-.92 3.396-.714 1.339.206 2.346.765 3.026 1.686.679.922.911 2.09.706 3.523l-.505 3.376c-.211 1.423-.783 2.477-1.699 3.167-.916.689-2.051.929-3.385.733-1.339-.205-2.346-.764-3.041-1.69-.696-.927-.923-2.11-.706-3.523l.505-3.376-.002-.026zm1.823 3.762c-.134.883-.056 1.575.235 2.078.29.503.771.802 1.449.907.677.105 1.235-.043 1.638-.436.413-.4.687-1.041.822-1.923l.513-3.408c.139-.898.065-1.606-.22-2.099-.284-.493-.761-.808-1.449-.907-.677-.105-1.236.043-1.649.442-.413.4-.697 1.046-.835 1.944l-.514 3.408.01-.006zm-11.606-6.12 4.136 1.032-.449 1.801-4.136-1.032.449-1.801zm-12.587-8.653 2.228.792-1.714 4.813 3.717 1.327 1.714-4.812 2.234.803-4.115 11.549-2.233-.803 1.787-4.988-3.717-1.328-1.777 4.983-2.228-.793 4.114-11.549-.01.006zm-7.71-.511 2.791 1.259 1.719-2.133 2.262 1.014-8.208 9.755-2.246-1.01 1.865-12.611 2.268 1.025-.451 2.701zm1.581 2.762-1.904-.859-.673 3.97.054.022 2.523-3.133zm-8.489-3.669 2.348-4.319 2.086 1.129-5.858 10.758-3.227-1.757c-1.07-.576-1.755-1.321-2.069-2.213-.314-.892-.198-1.83.35-2.831.305-.564.702-.968 1.175-1.241.472-.273 1.032-.395 1.653-.365-.461-.497-.696-1.019-.704-1.591-.008-.572.163-1.181.515-1.826l.431-.786c.165-.296.306-.632.413-1.003.108-.371.121-.673.028-.928l.084-.156 2.158 1.182c.093.254.06.569-.094.953a9.819 9.819 0 0 1-.516 1.103l-.408.758c-.3.548-.411 1.029-.349 1.462.057.423.3.752.731.986l1.253.685zm-.886 1.625-1.129-.609c-.452-.249-.866-.292-1.242-.154-.377.137-.701.458-.979.953-.271.506-.378.97-.302 1.382.073.427.326.75.778.999l1.135.619 1.739-3.19zm-7.475-6.468 2.671-4.13 1.992 1.291-6.651 10.291-3.08-1.991c-1.023-.656-1.653-1.446-1.901-2.363-.241-.906-.058-1.843.561-2.791.348-.536.773-.916 1.268-1.148.496-.233 1.054-.313 1.672-.241-.422-.521-.621-1.076-.582-1.635.033-.57.252-1.166.647-1.782l.481-.747c.186-.282.343-.614.488-.966.14-.363.169-.661.095-.927l.091-.146 2.067 1.328c.067.256.008.572-.167.941-.176.37-.373.725-.592 1.066l-.466.725c-.344.52-.497.998-.46 1.433.03.425.244.771.65 1.033l1.202.781.014-.022zm-1.004 1.559-1.072-.695c-.428-.276-.839-.361-1.227-.244-.389.117-.736.398-1.041.869-.309.487-.454.933-.407 1.362.04.419.275.779.697 1.046l1.088.699 1.972-3.042-.01.005zm-9.033-6.051-.043-.028-4.905 2.979-2.071-1.567 7.614-4.141 2.626-3.488 1.886 1.433-2.728 3.613-1.864 8.292-2.072-1.567 1.531-5.524.026-.002zm-7.807-9.736 3.037-3.242 1.732 1.629-8.382 8.943-2.989-2.807c-.898-.836-1.36-1.776-1.395-2.789-.025-1.018.351-1.946 1.159-2.801.807-.855 1.707-1.294 2.719-1.329 1.013-.035 1.974.376 2.862 1.218l1.257 1.178zm-1.276 1.367-1.257-1.178c-.386-.367-.816-.508-1.284-.412-.467.095-.9.345-1.296.775-.415.441-.648.897-.714 1.364-.06.477.101.894.487 1.261l1.257 1.179 2.807-2.989zm-9.885-12.894c1.066-.965 2.177-1.432 3.316-1.365 1.148.061 2.179.593 3.087 1.584.913 1.002 1.342 2.069 1.281 3.217-.062 1.149-.623 2.197-1.683 3.171l-2.531 2.306c-1.066.965-2.167 1.426-3.32 1.381-1.143-.051-2.178-.567-3.081-1.574-.914-1.002-1.338-2.085-1.287-3.227.055-1.159.611-2.217 1.677-3.182l2.531-2.306.01-.005zm-.953 4.063c-.661.597-1.032 1.186-1.127 1.765-.095.578.093 1.113.55 1.626.468.508.982.748 1.556.698.565-.044 1.18-.373 1.852-.975l2.55-2.318c.676-.618 1.063-1.203 1.164-1.771.101-.568-.087-1.103-.545-1.617-.467-.508-.981-.747-1.562-.707-.58.04-1.195.368-1.877.976l-2.551 2.318-.01.005zm-9.257-7.369 1.781 2.271 8.189-6.418 1.471 1.873-8.19 6.419 1.73 2.206-1.465 1.155-4.982-6.352 1.466-1.154zm-5.196-7.582 1.616 2.38 8.604-5.84 1.342 1.975-8.605 5.839 1.581 2.32-1.54 1.05-4.537-6.675 1.539-1.049zm.04-11.638c1.236-.74 2.413-.977 3.518-.69 1.115.282 2.017 1.008 2.711 2.163.694 1.156.908 2.293.626 3.408-.272 1.109-1.038 2.034-2.274 2.774l-2.928 1.758c-1.235.74-2.403.971-3.522.706-1.109-.272-2.021-.993-2.715-2.148-.694-1.155-.897-2.298-.622-3.423.282-1.115 1.043-2.05 2.268-2.785l2.928-1.757.01-.006zm-1.743 3.809c-.769.458-1.253.965-1.45 1.508-.206.548-.126 1.105.227 1.693.343.594.815.924 1.376.99.561.065 1.235-.137 2.004-.594l2.958-1.775c.779-.463 1.279-.967 1.482-1.499.212-.539.142-1.101-.211-1.689-.343-.594-.815-.924-1.392-.994-.576-.069-1.251.132-2.03.595l-2.958 1.775-.006-.01zm-2.504-13.025 1.767 3.875-1.696.778-1.768-3.875 1.686-.772.011-.006zm-1.097-15.233.769 2.239-4.833 1.663 1.286 3.737 4.833-1.663.775 2.248-11.593 3.984-.775-2.248 5.011-1.727-1.286-3.737-5.011 1.727-.77-2.239 11.594-3.984zm-4.416-6.369.761 2.967 2.743.012.607 2.399-12.737-.344-.612-2.383 11.017-6.401.613 2.409-2.397 1.33.005.011zm-1.175 2.958-.512-2.025-3.515 1.949.024.04 4.013.03-.01.006zm-2.421-8.956 4.845-.852.411 2.337-12.07 2.114-.638-3.615c-.208-1.195-.065-2.202.444-2.993.504-.8 1.317-1.296 2.44-1.489.623-.105 1.188-.055 1.694.149.507.203.945.567 1.313 1.066.101-.662.367-1.178.813-1.543.446-.365 1.02-.602 1.751-.729l.876-.157a4.844 4.844 0 0 0 1.043-.307c.361-.141.599-.332.736-.559l.17-.031.421 2.425c-.137.227-.413.4-.801.517a12.48 12.48 0 0 1-1.184.295l-.85.155c-.607.109-1.063.318-1.361.638-.288.314-.394.711-.309 1.184l.251 1.411.005-.016zm-1.828.318-.222-1.267c-.087-.499-.307-.856-.658-1.069-.351-.213-.796-.264-1.347-.174-.562.096-.991.304-1.274.628-.288.314-.383.731-.301 1.22l.227 1.277 3.579-.631-.004.016zm.412-9.854 4.899-.482.235 2.359-12.198 1.195-.355-3.658c-.125-1.215.103-2.191.666-2.959.568-.757 1.406-1.187 2.533-1.302.637-.059 1.199.032 1.687.274.494.251.902.632 1.236 1.164.152-.665.461-1.152.915-1.481.47-.324 1.061-.532 1.801-.597l.89-.084a5.142 5.142 0 0 0 1.063-.226c.363-.115.629-.282.782-.504l.175-.021.236 2.452c-.159.213-.446.365-.836.456a8.81 8.81 0 0 1-1.201.197l-.854.077c-.62.063-1.083.237-1.399.526-.316.29-.454.678-.404 1.159l.138 1.423-.009.032zm-1.842.178-.118-1.273c-.051-.507-.24-.881-.577-1.116-.336-.234-.779-.328-1.338-.273-.569.06-1.006.232-1.315.531-.31.3-.443.698-.397 1.195l.13 1.293 3.615-.357zm-.878-10.813-.003-.052-5.379-1.977-.063-2.593 7.982 3.372 4.365-.106.063 2.364-4.52.115-7.65 3.706-.062-2.593 5.277-2.242-.01.006zm2.74-12.164 4.419.36-.192 2.363-12.224-.989.331-4.094c.099-1.224.537-2.161 1.319-2.827.772-.66 1.749-.942 2.914-.851 1.166.091 2.087.525 2.738 1.303.65.778.928 1.771.836 3.005l-.137 1.714-.004.016zm-1.856-.148.136-1.715c.041-.534-.119-.951-.471-1.257-.351-.307-.83-.487-1.421-.534-.601-.042-1.1.045-1.517.299-.412.238-.638.636-.679 1.17l-.136 1.715 4.094.332-.006-.01zm3.924-15.758c1.419.227 2.479.809 3.138 1.742.67.928.9 2.069.678 3.404-.221 1.335-.78 2.342-1.708 3.011-.927.67-2.101.891-3.525.654l-3.373-.547c-1.419-.227-2.463-.804-3.143-1.726-.68-.922-.904-2.053-.698-3.393.222-1.335.791-2.347 1.728-3.023.938-.675 2.111-.896 3.53-.669l3.373.547zm-3.779 1.793c-.888-.145-1.571-.073-2.09.214-.502.29-.817.767-.922 1.444-.115.684.027 1.232.426 1.645.39.419 1.031.693 1.919.837l3.399.546c.898.138 1.602.08 2.101-.194.499-.275.813-.751.918-1.429.115-.683-.027-1.232-.422-1.661-.389-.419-1.036-.702-1.94-.851l-3.399-.545.01-.006zm-.025-11.842-.658 2.808 10.123 2.39-.553 2.317-10.123-2.39-.648 2.734-1.815-.427 1.849-7.853 1.815.427.01-.006zm2.678-8.788-.849 2.756 9.941 3.073-.702 2.269-9.941-3.072-.828 2.677-1.781-.554 2.378-7.703 1.782.554zm9.223-7.324c1.348.523 2.249 1.317 2.707 2.367.459 1.05.445 2.211-.052 3.463-.491 1.263-1.257 2.121-2.306 2.579-1.05.459-2.249.427-3.586-.102l-3.187-1.245c-1.338-.529-2.243-1.307-2.711-2.351-.469-1.044-.455-2.205.036-3.467.491-1.263 1.267-2.127 2.326-2.591 1.06-.464 2.259-.432 3.591.086l3.186 1.246-.004.015zm-4.074.958c-.831-.325-1.523-.408-2.08-.235-.557.174-.954.578-1.202 1.217-.248.64-.229 1.206.065 1.693.295.487.866.895 1.697 1.22l3.208 1.259c.847.329 1.545.423 2.102.249.556-.174.949-.562 1.207-1.207.248-.639.224-1.216-.061-1.709-.29-.502-.861-.911-1.708-1.24l-3.208-1.259-.02.012zm8.529-9.941-1.926 3.795-1.663-.837 1.926-3.795 1.663.837zm11.251-10.385-1.275 1.997-4.306-2.744-2.126 3.333 4.307 2.744-1.275 1.996-10.344-6.581 1.269-2.007 4.474 2.849 2.126-3.333-4.469-2.838 1.275-1.997 10.344 6.581zm2.21-7.391-1.846 2.447 1.701 2.156-1.49 1.973-7.672-10.176 1.485-1.957 11.871 4.627-1.499 1.979-2.535-1.045-.015-.004zm-3.046.926 1.263-1.668-3.719-1.541-.029.044 2.485 3.165zm5.498-7.479 3.683 3.265-1.574 1.781-9.177-8.114 2.437-2.748c.814-.912 1.673-1.422 2.625-1.515.952-.094 1.829.218 2.681.973.473.424.788.9.944 1.427.157.526.149 1.094-.013 1.697.584-.337 1.149-.449 1.713-.332.564.117 1.113.417 1.668.915l.666.595c.253.229.546.435.885.628.34.193.636.264.899.232l.132.112-1.633 1.841c-.263.032-.566-.075-.913-.304a8.495 8.495 0 0 1-.966-.743l-.638-.571c-.467-.414-.917-.637-1.341-.674-.424-.037-.799.126-1.126.489l-.95 1.072-.002-.026zm-1.39-1.223.853-.962c.341-.384.479-.773.434-1.176-.055-.397-.291-.784-.709-1.159-.434-.38-.857-.578-1.291-.61-.428-.021-.813.148-1.144.527l-.863.967 2.715 2.403.005.01zm7.965-5.832 3.433 3.53-1.701 1.653-8.536-8.792 2.641-2.558c.874-.853 1.78-1.282 2.725-1.318.945-.036 1.817.359 2.594 1.171.439.458.723.951.834 1.49.11.54.071 1.099-.138 1.689.606-.296 1.185-.362 1.736-.197.545.154 1.081.502 1.592 1.038l.627.645c.239.251.518.478.843.693.315.221.612.317.881.296l.128.127-1.76 1.714c-.265.005-.564-.117-.886-.374a8.295 8.295 0 0 1-.903-.82l-.599-.619c-.433-.448-.865-.708-1.29-.771-.425-.063-.808.064-1.156.413l-1.033.998-.032-.008zm-1.286-1.323.919-.893c.369-.36.538-.74.519-1.144-.019-.405-.225-.809-.619-1.212-.399-.413-.814-.643-1.239-.706-.425-.063-.822.085-1.181.44l-.929.899 2.524 2.606.006.01zm7.91-7.437.04-.023-1.805-5.449 1.986-1.67 2.328 8.353 2.808 3.354-1.818 1.519-2.908-3.457-7.662-3.678 1.986-1.669 5.04 2.736.005-.016zm11.245-5.446 2.474 3.681-1.971 1.326-6.839-10.174 3.401-2.286c1.025-.685 2.026-.928 3.026-.727 1.001.2 1.822.785 2.473 1.751.657.975.887 1.955.687 2.956-.2 1-.805 1.833-1.831 2.519l-1.43.96.01-.006zm-1.04-1.546 1.43-.96c.446-.297.677-.685.691-1.149.024-.47-.135-.955-.472-1.445-.342-.5-.721-.831-1.178-.996-.458-.165-.891-.102-1.336.195l-1.431.96 2.286 3.401.01-.006zm14.769-6.729c.7 1.259.891 2.449.572 3.546-.319 1.096-1.067 1.984-2.256 2.643-1.188.659-2.323.831-3.419.512-1.096-.319-2.002-1.097-2.702-2.356l-1.657-2.987c-.7-1.259-.895-2.433-.582-3.54.304-1.1 1.052-1.988 2.23-2.642 1.178-.653 2.329-.821 3.445-.513 1.106.313 2.017 1.102 2.717 2.36l1.658 2.987-.006-.01zm-3.744-1.862c-.437-.781-.915-1.283-1.459-1.505-.544-.222-1.103-.168-1.702.164-.593.343-.941.785-1.033 1.348-.091.562.085 1.238.528 2.029l1.675 3.016c.443.791.926 1.303 1.45 1.537.534.228 1.093.174 1.692-.159.593-.343.952-.791 1.037-1.363.085-.572-.081-1.255-.524-2.045l-1.674-3.016.01-.006zm9.208-7.395-2.6 1.233 4.456 9.39-2.161 1.02-4.446-9.397-2.54 1.199-.799-1.685 7.286-3.455.798 1.684.006.011zm8.507-3.383-2.679 1.05 3.808 9.685-2.216.877-3.808-9.685-2.613 1.026-.676-1.729 7.508-2.953.676 1.729zm11.496 2.63c.432 1.374.374 2.574-.169 3.585-.543 1.011-1.448 1.721-2.745 2.121-1.298.401-2.446.34-3.451-.193-1.015-.527-1.734-1.494-2.165-2.868l-1.013-3.264c-.431-1.374-.373-2.574.154-3.589.527-1.015 1.441-1.731 2.729-2.126 1.297-.4 2.451-.329 3.472.208s1.75 1.498 2.176 2.862l1.012 3.264zm-3.277-2.587c-.264-.853-.633-1.445-1.116-1.77-.482-.325-1.043-.39-1.702-.184-.659.206-1.089.575-1.291 1.108-.203.532-.161 1.232.104 2.085l1.015 3.29c.27.864.634 1.471 1.107 1.802.472.331 1.033.396 1.692.19.659-.206 1.089-.575 1.302-1.114.212-.538.18-1.244-.096-2.117l-1.025-3.284.01-.006zm13.084.479-4.168.864-.38-1.819 4.168-.864.38 1.819z"/><path fill="#FFEFCA" d="m385.796 154.203-4.758.495-1.08-10.278-7.946.845 1.08 10.278-4.777.508-2.608-24.665 4.778-.508 1.135 10.654 7.945-.845-1.134-10.654 4.757-.495 2.608 24.665zm14.465-5.803-6.198.161-1.275 5.401-5.001.121 6.413-24.964 4.969-.13 7.644 24.605-5.022.133-1.55-5.315.02-.012zm-5.291-3.67 4.223-.106-2.258-7.809-.105.006-1.86 7.909zm18.726-.724-.508 9.921-4.802-.238 1.281-24.74 7.41.386c2.459.127 4.355.876 5.699 2.215 1.354 1.361 1.968 3.176 1.853 5.466-.07 1.288-.414 2.382-1.054 3.293-.64.912-1.534 1.618-2.682 2.118 1.261.493 2.158 1.249 2.673 2.281.514 1.032.727 2.292.669 3.79l-.102 1.795c-.032.696.012 1.43.12 2.181.108.751.364 1.336.765 1.701l-.01.358-4.971-.249c-.38-.377-.595-.984-.666-1.811a19.39 19.39 0 0 1-.043-2.471l.085-1.73c.062-1.256-.155-2.243-.631-2.972-.495-.717-1.213-1.116-2.184-1.152l-2.881-.154-.021.012zm.196-3.747 2.576.14c1.034.054 1.828-.215 2.402-.817.574-.603.891-1.464.95-2.583.068-1.151-.146-2.085-.662-2.79-.516-.706-1.255-1.093-2.289-1.147l-2.628-.137-.381 7.325.032.009zm19.243 5.243-1.249 9.86-4.771-.608 3.111-24.576 7.369.925c2.427.307 4.29 1.185 5.534 2.636 1.245 1.451 1.725 3.316 1.441 5.595-.166 1.262-.595 2.351-1.302 3.193-.695.862-1.657 1.498-2.832 1.906 1.235.589 2.063 1.412 2.496 2.491.442 1.047.561 2.334.367 3.829l-.219 1.781a9.687 9.687 0 0 0-.037 2.191c.067.774.271 1.362.643 1.771l-.042.35-4.94-.619c-.352-.421-.515-1.032-.533-1.862-.018-.831.048-1.655.146-2.471l.222-1.729c.146-1.25.022-2.263-.4-2.996-.435-.752-1.124-1.195-2.089-1.316l-2.874-.374-.041.023zm.461-3.71 2.577.329c1.029.138 1.846-.09 2.456-.631.609-.542.99-1.385 1.133-2.499.152-1.145-.009-2.083-.444-2.835-.434-.753-1.164-1.172-2.193-1.31l-2.609-.338-.92 7.284zm21.736 3.125.097.026 6.318-9.722 5.154 1.037-10.236 14.209-1.741 8.68-4.697-.95 1.798-8.956-3.888-16.739 5.155 1.037 2.052 11.399-.012-.021zm22.779 10.85-2.674 8.568-4.568-1.431 7.406-23.666 7.914 2.482c2.381.741 4.047 2.03 4.987 3.846.952 1.837 1.063 3.861.357 6.113-.707 2.252-1.967 3.874-3.783 4.815-1.816.94-3.925 1.045-6.285.292l-3.334-1.031-.02.012zm1.131-3.582 3.334 1.031c1.03.327 1.927.19 2.693-.362.755-.571 1.325-1.415 1.699-2.553.361-1.158.383-2.201.096-3.12-.286-.92-.965-1.531-1.995-1.859l-3.334-1.031-2.481 7.914-.012-.02zm29.315 14.75c-1.089 2.717-2.706 4.519-4.84 5.425-2.134.907-4.473.847-7.018-.178-2.545-1.026-4.259-2.586-5.165-4.72-.907-2.134-.81-4.55.258-7.255l2.581-6.426c1.081-2.684 2.686-4.506 4.809-5.433 2.122-.927 4.449-.888 6.994.138s4.271 2.606 5.189 4.76c.919 2.155.822 4.57-.247 7.275l-2.581 6.426.02-.012zm-1.851-8.233c.668-1.66.825-3.079.505-4.197-.331-1.137-1.127-1.952-2.432-2.474-1.304-.521-2.449-.484-3.445.091-.997.576-1.822 1.73-2.511 3.402l-2.589 6.458c-.698 1.705-.866 3.104-.567 4.232.32 1.118 1.116 1.933 2.42 2.454 1.305.522 2.449.485 3.466-.102 1.017-.588 1.854-1.722 2.539-3.446l2.59-6.458.024.04zm23.399 5.257-5.246-2.558-9.239 18.894-4.335-2.107 9.239-18.894-5.094-2.483 1.648-3.392 14.655 7.16-1.648 3.392.02-.012zm16.115 9.219-5.046-2.917-10.501 18.212-4.185-2.411 10.501-18.212-4.915-2.83 1.887-3.26 14.135 8.138-1.887 3.259.011.021zm10.263 21.438c-1.644 2.414-3.589 3.835-5.888 4.268-2.279.42-4.542-.117-6.812-1.654-2.271-1.537-3.616-3.445-4.058-5.712-.441-2.267.154-4.618 1.798-7.031l3.887-5.716c1.623-2.401 3.589-3.834 5.856-4.276 2.267-.441 4.55.085 6.82 1.622 2.271 1.537 3.616 3.445 4.049 5.744.433 2.3-.163 4.65-1.786 7.052l-3.887 5.715.021-.012zm-.056-8.456c1.004-1.502 1.482-2.835 1.381-3.997-.081-1.174-.697-2.147-1.849-2.92-1.163-.793-2.279-.989-3.373-.628-1.093.36-2.152 1.297-3.177 2.81l-3.915 5.759c-1.024 1.514-1.522 2.859-1.441 4.032.081 1.174.685 2.127 1.848 2.92 1.163.793 2.291 1.009 3.405.637 1.114-.372 2.185-1.288 3.23-2.813l3.915-5.759-.024-.041zm15.8 21.306-6.623-5.505 2.393-2.901 6.623 5.506-2.405 2.88.012.02zm15.364 26.846-3.351-3.408 7.36-7.26-5.612-5.682-7.361 7.26-3.382-3.416 17.661-17.411 3.383 3.416-7.618 7.518 5.612 5.682 7.619-7.518 3.35 3.408-17.661 17.411zm13.582 7.698-3.988-4.749-5.003 2.373-3.219-3.836 23.525-10.545 3.206 3.817-14.492 21.303-3.23-3.857 3.21-4.538-.009.032zm-.448-6.413 2.709 3.236 4.715-6.627-.047-.082-7.377 3.473zm12.245 14.165-8.08 5.777-2.791-3.894 20.145-14.424 4.33 6.043c1.425 1.998 2.036 3.95 1.823 5.835-.213 1.886-1.251 3.516-3.118 4.838-1.04.736-2.13 1.148-3.231 1.214-1.101.067-2.232-.202-3.33-.789.405 1.312.369 2.472-.115 3.511-.485 1.039-1.343 1.995-2.542 2.878l-1.472 1.066c-.555.402-1.115.888-1.628 1.455-.533.58-.816 1.123-.857 1.662l-.282.217-2.905-4.045c.073-.531.397-1.098.995-1.66a17.177 17.177 0 0 1 1.915-1.566l1.423-1.012c1.019-.724 1.677-1.51 1.932-2.336.256-.825.112-1.637-.462-2.445l-1.688-2.361-.062.036zm3.038-2.161 1.515 2.108c.598.848 1.32 1.3 2.124 1.378.825.066 1.692-.218 2.609-.883.938-.677 1.535-1.428 1.79-2.254.256-.825.068-1.666-.518-2.494l-1.527-2.128-5.961 4.282-.032-.009zm7.886 18.309-8.486 5.17-2.497-4.09 21.163-12.897 3.873 6.334c1.274 2.112 1.74 4.094 1.39 5.977-.361 1.863-1.531 3.406-3.469 4.606-1.106.666-2.192.995-3.319.968-1.127-.027-2.189-.364-3.261-1.046.312 1.338.191 2.492-.369 3.494-.561 1.002-1.486 1.888-2.764 2.681l-1.543.944c-.589.341-1.161.807-1.75 1.336-.589.53-.904 1.065-.978 1.595l-.305.176-2.579-4.232c.105-.522.473-1.06 1.126-1.573.653-.512 1.318-1.005 2.03-1.416l1.481-.909c1.087-.655 1.78-1.38 2.099-2.188.32-.809.229-1.624-.284-2.467l-1.506-2.466-.052.003zm3.219-1.94 1.352 2.202c.537.884 1.21 1.39 2.029 1.541.807.131 1.709-.092 2.674-.676.984-.595 1.637-1.298 1.945-2.126.299-.797.185-1.653-.341-2.516l-1.376-2.242-6.263 3.806-.02.011zm11.11 18.915.047.082 11.547-1.135 2.395 4.665-17.497.881-7.858 4.049-2.192-4.267 8.134-4.181 10.66-13.476 2.394 4.665-7.63 8.717zm5.75 24.614-8.369 3.258-1.742-4.472 23.103-8.973 3 7.733c.908 2.324.929 4.427.104 6.286-.833 1.891-2.35 3.255-4.552 4.093-2.21.869-4.24.875-6.131.041-1.871-.845-3.259-2.403-4.166-4.727l-1.259-3.26.012.021zm3.495-1.368 1.258 3.26c.387.998 1.045 1.621 1.975 1.871.93.249 1.935.157 3.066-.279 1.131-.436 1.968-1.055 2.497-1.875.541-.801.613-1.71.215-2.728l-1.259-3.26-7.732 3-.02.011zm6.76 32.14c-2.802.83-5.209.701-7.253-.397-2.043-1.098-3.45-2.97-4.228-5.586-.778-2.615-.634-4.949.464-6.993 1.098-2.044 3.043-3.466 5.833-4.317l6.615-1.975c2.781-.819 5.208-.702 7.24.376 2.032 1.078 3.459 2.938 4.249 5.574.789 2.636.613 4.961-.484 7.005-1.098 2.044-3.052 3.498-5.842 4.349l-6.615 1.975.021-.011zm5.306-6.59c1.737-.514 2.934-1.26 3.603-2.215.668-.956.809-2.122.404-3.434-.397-1.344-1.143-2.214-2.22-2.623-1.077-.409-2.484-.356-4.22.158l-6.676 2.011c-1.758.526-2.986 1.263-3.655 2.218-.68.935-.812 2.069-.416 3.413.397 1.344 1.143 2.215 2.232 2.644 1.088.429 2.515.365 4.272-.162l6.676-2.01zm10.45 21.575-1.246-5.681-20.539 4.536-1.041-4.715 20.539-4.536-1.216-5.535 3.675-.82 3.524 15.919-3.676.82-.02.012zm2.829 18.38-.862-5.767-20.793 3.11-.717-4.766 20.793-3.109-.853-5.61 3.724-.549 2.42 16.121-3.723.55.011.02zm-10.396 21.352c-2.912.217-5.234-.422-7.009-1.947-1.775-1.524-2.722-3.635-2.938-6.358-.216-2.722.438-4.971 1.953-6.714 1.516-1.743 3.708-2.737 6.62-2.954l6.881-.529c2.912-.216 5.233.423 6.996 1.927 1.764 1.504 2.764 3.612 2.959 6.346.217 2.723-.458 4.984-1.962 6.747-1.524 1.775-3.736 2.781-6.628 2.986l-6.881.528.009-.032zm6.574-5.287c1.791-.139 3.12-.608 3.987-1.407.868-.799 1.244-1.884 1.151-3.268-.106-1.403-.629-2.403-1.613-3.028-.964-.637-2.358-.89-4.169-.739l-6.933.532c-1.843.142-3.184.591-4.031 1.378-.859.767-1.236 1.852-1.131 3.256.106 1.403.641 2.424 1.605 3.06.976.657 2.369.91 4.212.768l6.934-.531-.012-.021zm-6.856 25.654.177-8.618 3.761.08-.177 8.617-3.761-.079zm-11.418 28.694.567-4.748 10.26 1.237.954-7.928-10.259-1.236.576-4.78 24.619 2.953-.576 4.78-10.629-1.267-.955 7.927 10.629 1.267-.567 4.748-24.619-2.953zm2.456 15.478 1.234-6.082-4.987-2.437.989-4.909 22.899 11.81-.98 4.878-25.692 1.951 1.009-4.921 5.536-.322-.008.032zm4.745-4.367-.834 4.143 8.116-.455.026-.096-7.308-3.592zm-3.442 18.367-9.578-2.687 1.29-4.623 23.847 6.735-2.002 7.149c-.668 2.365-1.808 4.054-3.44 5.078-1.612 1.012-3.537 1.201-5.742.576-1.231-.347-2.224-.94-2.967-1.758-.744-.819-1.238-1.862-1.459-3.091-.764 1.12-1.71 1.829-2.819 2.116-1.109.288-2.396.218-3.831-.201l-1.745-.485a11.042 11.042 0 0 0-2.157-.355c-.76-.049-1.395.074-1.83.352l-.353-.094 1.353-4.795c.468-.271 1.094-.361 1.922-.242.827.119 1.626.281 2.408.508l1.68.467c1.199.339 2.209.352 3.032.039.823-.312 1.354-.944 1.603-1.874l.78-2.782.008-.033zm3.617 1.004-.703 2.494c-.266.994-.195 1.821.256 2.51.452.688 1.229 1.189 2.32 1.481 1.102.313 2.069.297 2.86-.024.811-.333 1.33-.985 1.628-1.971l.712-2.526-7.065-1.996-.008.032zm-9.391 17.599-9.337-3.397 1.655-4.508 23.277 8.474-2.538 6.97c-.84 2.302-2.1 3.925-3.794 4.794-1.683.89-3.605.943-5.767.157-1.205-.443-2.149-1.092-2.823-1.977-.674-.886-1.095-1.944-1.223-3.199-.852 1.061-1.845 1.689-2.98 1.883-1.135.194-2.397.028-3.807-.487l-1.689-.625a10.872 10.872 0 0 0-2.126-.535c-.775-.122-1.381-.044-1.849.227l-.344-.127 1.698-4.668c.468-.271 1.108-.288 1.919-.105.811.183 1.592.409 2.377.689l1.646.595c1.173.435 2.198.521 3.024.261.827-.26 1.424-.822 1.746-1.767l.984-2.711-.049.056zm3.527 1.272-.874 2.43c-.363.969-.333 1.819.058 2.543.39.723 1.139 1.268 2.204 1.656 1.097.398 2.046.446 2.873.186.826-.26 1.408-.895 1.762-1.832l.904-2.474-6.895-2.501-.032-.008zm-7.869 20.516-.046.108 8.086 8.322-2.143 4.79-11.594-13.131-8.056-3.62 1.958-4.358 8.348 3.75 17.178-.073-2.143 4.79-11.584-.526-.004-.052zm-15.664 19.837-7.763-4.522 2.402-4.153 21.414 12.479-4.189 7.164c-1.248 2.158-2.874 3.476-4.872 4.007-1.999.53-4.008.198-6.058-1.005-2.05-1.203-3.345-2.788-3.864-4.766-.518-1.979-.149-4.063 1.091-6.189l1.755-3.02.084.005zm3.26 1.888-1.755 3.02c-.543.937-.627 1.826-.247 2.719.388.86 1.097 1.618 2.122 2.219 1.057.61 2.052.877 3.024.776.952-.089 1.71-.608 2.265-1.525l1.755-3.02-7.164-4.189zm-20.892 25.296c-2.393-1.656-3.806-3.633-4.207-5.924-.4-2.291.169-4.545 1.738-6.807 1.548-2.25 3.468-3.575 5.747-3.996 2.279-.42 4.6.219 6.993 1.875l5.666 3.942c2.393 1.656 3.795 3.613 4.227 5.913.421 2.279-.137 4.553-1.697 6.783-1.548 2.25-3.488 3.587-5.799 3.999-2.311.412-4.641-.195-7.034-1.851l-5.686-3.931.052-.003zm8.451.03c1.493 1.036 2.814 1.493 4 1.433 1.173-.081 2.158-.677 2.931-1.828.804-1.143 1.021-2.271.66-3.365-.34-1.105-1.256-2.176-2.77-3.2l-5.73-3.96c-1.505-1.057-2.838-1.534-4.003-1.486-1.165.049-2.138.665-2.943 1.808-.804 1.142-1.021 2.271-.669 3.397.352 1.125 1.268 2.196 2.773 3.253l5.71 3.971.041-.023zm-10.349 21.623 3.653-4.523-16.366-13.223 3.036-3.76 16.366 13.223 3.554-4.411 2.941 2.37-10.255 12.673-2.941-2.37.012.021zm-12.575 13.633 3.963-4.268-15.401-14.322 3.281-3.522 15.401 14.322 3.864-4.156 2.753 2.56-11.109 11.946-2.752-2.56zm-23.263 5.267c-1.99-2.132-2.923-4.359-2.832-6.69.103-2.311 1.145-4.404 3.159-6.271 2.013-1.868 4.159-2.754 6.457-2.671 2.299.083 4.46 1.195 6.45 3.328l4.712 5.062c1.991 2.132 2.924 4.36 2.853 6.679-.071 2.319-1.113 4.412-3.106 6.268-1.993 1.855-4.171 2.733-6.51 2.674-2.331-.092-4.491-1.204-6.47-3.316l-4.713-5.063zm8.243 1.831c1.227 1.326 2.419 2.075 3.576 2.248 1.157.173 2.239-.208 3.266-1.153 1.027-.946 1.48-1.994 1.378-3.156-.101-1.161-.785-2.394-2.012-3.719l-4.736-5.104c-1.238-1.346-2.442-2.115-3.59-2.32-1.137-.184-2.219.196-3.246 1.142-1.027.945-1.5 2.005-1.399 3.167.102 1.161.777 2.426 2.016 3.772l4.736 5.103.011.02zm-24.278 10.6 6.851-5.23 2.274 2.999-6.851 5.231-2.274-3zm-29.564 8.96 4.079-2.517 5.431 8.797 6.797-4.196-5.431-8.797 4.078-2.517 13.04 21.082-4.078 2.518-5.64-9.111-6.797 4.196 5.639 9.111-4.078 2.517-13.04-21.083zm-10.522 11.554 5.522-2.836-1.198-5.41 4.449-2.298 5.074 25.275-4.408 2.274-17.577-18.843 4.481-2.289 3.709 4.123-.052.004zm6.352.997-3.767 1.93 5.425 6.062.082-.047-1.761-7.933.021-.012zm-16.506 8.797-3.875-9.153 4.422-1.875 9.631 22.834-6.844 2.894c-2.268.956-4.309 1.131-6.115.493-1.806-.639-3.14-2.011-4.035-4.125-.492-1.18-.666-2.327-.479-3.412.176-1.105.672-2.124 1.51-3.068-1.351.102-2.494-.187-3.409-.879-.915-.693-1.663-1.753-2.24-3.128l-.709-1.651c-.259-.637-.623-1.268-1.072-1.904-.448-.636-.925-1.039-1.43-1.208l-.135-.329 4.576-1.937c.505.17.964.637 1.395 1.337.432.7.782 1.447 1.111 2.206l.675 1.591c.48 1.16 1.127 1.952 1.869 2.392.742.439 1.575.473 2.488.082l2.657-1.128.009-.032zm1.469 3.437-2.381.995c-.954.415-1.54.998-1.798 1.771-.259.773-.162 1.693.28 2.74.453 1.067 1.045 1.81 1.807 2.238.762.427 1.604.429 2.537.026l2.422-1.018-2.847-6.764-.02.012zm-19.675 3.685-3.165-9.428 4.549-1.514 7.892 23.485-7.045 2.359c-2.341.782-4.372.788-6.111.03-1.751-.779-2.996-2.23-3.716-4.418-.411-1.227-.468-2.36-.208-3.459.26-1.1.844-2.061 1.737-2.956-1.357-.003-2.475-.388-3.34-1.136-.845-.76-1.532-1.855-2.007-3.289l-.576-1.701a9.368 9.368 0 0 0-.93-1.986c-.387-.671-.835-1.118-1.331-1.319l-.115-.341 4.724-1.588c.475.214.914.692 1.296 1.448.383.756.68 1.506.937 2.28l.552 1.661c.399 1.207.965 2.046 1.678 2.53.713.483 1.529.581 2.457.263l2.742-.933-.02.012zm1.201 3.537-2.455.82c-.98.322-1.63.887-1.932 1.631-.303.745-.278 1.68.07 2.753.361 1.094.924 1.881 1.636 2.364.734.472 1.57.558 2.539.216l2.475-.832-2.333-6.952zm-20.949 6.644-.081.047-1.478 11.484-5.077 1.304 3.057-17.25-2.197-8.549 4.632-1.183 2.268 8.86 10.768 13.391-5.077 1.304-6.803-9.388-.012-.02zm-25.193.09-1.302-8.876 4.757-.685 3.568 24.544-8.209 1.187c-2.451.358-4.518-.076-6.161-1.324-1.643-1.248-2.644-3.03-2.984-5.356-.351-2.346.097-4.341 1.325-5.972 1.228-1.63 3.082-2.647 5.533-3.004l3.452-.502.021-.012zm.549 3.724-3.452.502c-1.074.159-1.824.646-2.277 1.504-.433.847-.583 1.855-.418 3.034.178 1.2.593 2.153 1.266 2.85.673.696 1.542.98 2.616.821l3.453-.502-1.188-8.209zm-32.895-.615c-.185-2.904.474-5.237 2.022-6.971 1.548-1.735 3.679-2.694 6.393-2.878 2.714-.183 4.954.503 6.697 2.019 1.743 1.516 2.708 3.751 2.893 6.655l.456 6.896c.185 2.904-.474 5.237-1.99 6.98-1.515 1.743-3.635 2.722-6.381 2.897-2.725.164-4.974-.49-6.741-2.047-1.766-1.556-2.74-3.76-2.925-6.664l-.456-6.896.032.009zm5.238 6.63c.119 1.803.567 3.144 1.367 4.011.799.868 1.864 1.256 3.247 1.163 1.383-.094 2.415-.608 3.051-1.572.637-.964.902-2.338.803-4.152l-.459-6.949c-.11-1.834-.571-3.196-1.338-4.054-.779-.88-1.844-1.268-3.247-1.163-1.384.094-2.415.608-3.072 1.584-.669.955-.942 2.361-.8 4.204l.46 6.948-.012-.02zm-23.341 5.367 5.832.05.168-21.033 4.821.037-.168 21.033 5.663.039-.027 3.758-16.316-.126.027-3.758zm-18.483-1.343 5.814.441 1.592-20.961 4.8.375-1.593 20.961 5.644.429-.28 3.742-16.257-1.245.28-3.742zm-18.561-14.911c.427-2.877 1.583-5.009 3.447-6.384 1.864-1.374 4.16-1.859 6.868-1.443 2.708.417 4.743 1.547 6.118 3.411 1.374 1.864 1.842 4.224 1.427 7.122l-1.021 6.827c-.427 2.877-1.582 5.008-3.435 6.403-1.852 1.395-4.148 1.88-6.844 1.484-2.708-.416-4.744-1.546-6.15-3.419-1.407-1.873-1.866-4.265-1.427-7.122l1.02-6.827-.003-.052zm3.687 7.607c-.271 1.784-.114 3.184.474 4.201.587 1.017 1.559 1.622 2.929 1.834 1.371.213 2.499-.087 3.314-.882.836-.808 1.389-2.104 1.661-3.888l1.038-6.891c.28-1.816.131-3.249-.444-4.245-.576-.997-1.54-1.634-2.93-1.834-1.37-.213-2.499.086-3.335.894-.835.808-1.409 2.115-1.689 3.932l-1.038 6.891.02-.012zm-23.469-12.376 8.363 2.087-.907 3.642-8.364-2.087.908-3.642zM311.18 636.21l4.505 1.603-3.466 9.73 7.515 2.685 3.467-9.731 4.516 1.623-8.319 23.353-4.517-1.623 3.614-10.086-7.516-2.685-3.593 10.075-4.505-1.603 8.32-23.353-.021.012zm-15.591-1.032 5.645 2.544 3.476-4.312 4.574 2.051-16.597 19.725-4.542-2.043 3.771-25.5 4.586 2.071-.913 5.464zm3.197 5.584-3.85-1.736-1.359 8.025.108.046 5.101-6.335zm-17.164-7.419 4.746-8.734 4.22 2.283-11.846 21.754-6.526-3.554c-2.164-1.164-3.548-2.67-4.183-4.473-.634-1.804-.401-3.701.709-5.725.615-1.142 1.418-1.958 2.374-2.51.956-.552 2.088-.798 3.344-.737-.934-1.007-1.408-2.062-1.425-3.218-.016-1.157.331-2.388 1.041-3.693l.873-1.589a9.84 9.84 0 0 0 .835-2.028c.218-.749.245-1.361.056-1.876l.171-.315 4.362 2.389c.189.515.122 1.151-.189 1.927a19.403 19.403 0 0 1-1.045 2.23l-.823 1.533c-.607 1.11-.832 2.081-.706 2.957.114.856.607 1.521 1.477 1.995l2.535 1.384zm-1.792 3.285-2.283-1.231c-.914-.503-1.751-.589-2.513-.312-.762.277-1.417.927-1.978 1.928-.548 1.022-.766 1.961-.61 2.794.146.864.659 1.517 1.573 2.02l2.295 1.251 3.516-6.45zm-15.115-13.077 5.401-8.352 4.028 2.609-13.449 20.81-6.228-4.025c-2.068-1.328-3.343-2.924-3.843-4.778-.489-1.833-.119-3.728 1.134-5.645.703-1.083 1.561-1.85 2.564-2.321 1.003-.471 2.13-.633 3.38-.487-.852-1.054-1.256-2.176-1.177-3.307.068-1.151.511-2.356 1.309-3.603l.972-1.511c.376-.569.694-1.241.988-1.953.282-.732.34-1.335.192-1.874l.182-.295 4.181 2.685c.136.518.017 1.157-.338 1.904a19.294 19.294 0 0 1-1.197 2.155l-.943 1.467c-.694 1.051-1.004 2.017-.93 2.896.062.859.493 1.56 1.314 2.089l2.431 1.58.029-.044zm-2.031 3.152-2.168-1.406c-.865-.558-1.696-.73-2.481-.493-.785.236-1.488.805-2.104 1.757-.625.985-.918 1.886-.824 2.754.083.847.558 1.576 1.411 2.114l2.2 1.415 3.986-6.153-.02.012zm-18.264-12.236-.088-.058-9.917 6.025-4.189-3.169 15.395-8.373 5.311-7.052 3.815 2.896-5.517 7.307-3.77 16.767-4.188-3.169 3.096-11.171.052-.003zm-15.786-19.686 6.14-6.556 3.502 3.294-16.948 18.084-6.044-5.678c-1.816-1.69-2.751-3.591-2.822-5.638-.05-2.06.711-3.936 2.343-5.665 1.632-1.729 3.452-2.617 5.499-2.687 2.048-.07 3.992.76 5.788 2.462l2.542 2.384zm-2.58 2.764-2.542-2.383c-.781-.743-1.651-1.027-2.596-.834-.946.194-1.821.699-2.621 1.567-.841.893-1.311 1.815-1.444 2.76-.121.964.203 1.808.984 2.55l2.542 2.383 5.677-6.043zm-19.989-26.074c2.155-1.95 4.403-2.895 6.705-2.759 2.322.124 4.406 1.198 6.242 3.203 1.847 2.025 2.713 4.183 2.589 6.505-.123 2.322-1.258 4.442-3.402 6.412l-5.118 4.663c-2.155 1.95-4.382 2.883-6.713 2.791-2.311-.103-4.404-1.145-6.231-3.182-1.847-2.025-2.704-4.215-2.601-6.526.112-2.342 1.235-4.483 3.391-6.432l5.117-4.663.021-.012zm-1.927 8.217c-1.337 1.207-2.086 2.398-2.279 3.567-.193 1.169.188 2.251 1.113 3.29.945 1.027 1.985 1.512 3.146 1.411 1.142-.09 2.386-.754 3.743-1.971l5.159-4.687c1.366-1.25 2.147-2.433 2.352-3.582.204-1.149-.176-2.23-1.102-3.269-.945-1.027-1.984-1.512-3.158-1.431-1.173.081-2.417.745-3.795 1.974l-5.158 4.687-.021.011zm-18.718-14.902 3.6 4.593 16.561-12.978 2.973 3.788-16.56 12.978 3.498 4.462-2.963 2.335-10.073-12.843 2.964-2.335zm-10.506-15.331 3.267 4.812 17.398-11.808 2.712 3.994-17.398 11.808 3.196 4.69-3.113 2.123-9.175-13.497 3.113-2.122zm.081-23.532c2.498-1.497 4.879-1.977 7.113-1.395 2.254.57 4.078 2.039 5.481 4.374 1.403 2.336 1.836 4.636 1.266 6.89-.549 2.243-2.099 4.114-4.598 5.611l-5.92 3.553c-2.499 1.497-4.859 1.965-7.122 1.427-2.242-.549-4.087-2.006-5.49-4.342-1.403-2.336-1.815-4.647-1.257-6.922.569-2.254 2.108-4.146 4.586-5.631l5.92-3.554.021-.011zm-3.525 7.703c-1.555.924-2.535 1.951-2.932 3.048-.417 1.109-.255 2.236.459 3.424.692 1.2 1.648 1.869 2.782 2 1.133.132 2.498-.276 4.052-1.2l5.982-3.589c1.574-.936 2.586-1.955 2.995-3.031.429-1.089.287-2.227-.426-3.415-.693-1.201-1.648-1.869-2.814-2.01-1.166-.14-2.53.268-4.105 1.204l-5.982 3.589-.011-.02zm-5.065-26.338 3.575 7.835-3.43 1.573-3.575-7.835 3.41-1.561.02-.012zm-2.218-30.802 1.556 4.526-9.773 3.364 2.6 7.557 9.773-3.364 1.567 4.546-23.442 8.056-1.567-4.546 10.133-3.491-2.6-7.557-10.133 3.491-1.556-4.526 23.442-8.056zm-8.928-12.88 1.539 6 5.547.025 1.227 4.851-25.756-.696-1.236-4.819 22.275-12.942 1.239 4.871-4.846 2.69.011.02zm-2.376 5.982-1.035-4.094-7.107 3.941.047.081 8.116.061-.021.011zm-4.896-18.109 9.797-1.724.831 4.727-24.406 4.274-1.291-7.309c-.419-2.416-.131-4.454.899-6.052 1.018-1.618 2.662-2.622 4.933-3.01 1.26-.213 2.402-.113 3.427.299 1.024.412 1.91 1.148 2.654 2.156.204-1.338.741-2.381 1.644-3.119.902-.738 2.063-1.218 3.541-1.475l1.77-.316a9.8 9.8 0 0 0 2.109-.622c.73-.285 1.212-.672 1.489-1.131l.344-.062.852 4.905c-.278.458-.835.807-1.621 1.044-.806.248-1.594.432-2.395.596l-1.717.313c-1.228.221-2.15.645-2.753 1.291-.582.635-.797 1.437-.624 2.395l.508 2.852.009-.032zm-3.697.643-.448-2.562c-.177-1.01-.62-1.73-1.329-2.161-.71-.431-1.611-.535-2.726-.352-1.135.194-2.004.614-2.575 1.27-.582.634-.774 1.477-.609 2.467l.46 2.582 7.236-1.276-.009.032zm.834-19.926 9.906-.973.475 4.769-24.664 2.416-.718-7.396c-.253-2.457.207-4.431 1.345-5.983 1.15-1.532 2.844-2.402 5.124-2.633 1.287-.119 2.424.065 3.41.553.999.508 1.824 1.279 2.499 2.354.308-1.344.933-2.328 1.851-2.994.949-.656 2.144-1.075 3.641-1.207l1.8-.171c.69-.073 1.397-.21 2.15-.456.733-.233 1.271-.57 1.58-1.02l.355-.043.477 4.959c-.321.43-.903.738-1.691.922-.809.196-1.633.319-2.428.399l-1.726.156c-1.255.128-2.192.478-2.83 1.064-.638.585-.917 1.37-.817 2.343l.278 2.876-.017.065zm-3.724.36-.239-2.574c-.103-1.025-.485-1.781-1.166-2.256-.681-.474-1.576-.663-2.706-.553-1.15.122-2.034.469-2.66 1.075-.627.606-.894 1.411-.802 2.416l.262 2.615 7.311-.723zm-1.776-21.864-.006-.104-10.878-3.999-.125-5.243 16.139 6.819 8.825-.214.13 4.78-9.14.232-15.469 7.494-.126-5.243 10.67-4.533-.02.011zm5.541-24.596 8.934.727-.386 4.779-24.72-2 .671-8.279c.199-2.474 1.084-4.368 2.666-5.715 1.561-1.336 3.536-1.907 5.894-1.722 2.357.185 4.22 1.062 5.535 2.635 1.315 1.573 1.877 3.581 1.69 6.075l-.276 3.468-.008.032zm-3.753-.301.275-3.467c.083-1.079-.241-1.922-.952-2.542-.711-.621-1.679-.983-2.874-1.08-1.215-.085-2.225.091-3.068.605-.833.481-1.29 1.287-1.373 2.366l-.275 3.467 8.278.672-.011-.021zm7.934-31.863c2.869.459 5.012 1.636 6.346 3.523 1.354 1.876 1.819 4.184 1.371 6.884-.449 2.699-1.578 4.734-3.454 6.088-1.876 1.355-4.248 1.802-7.128 1.322l-6.821-1.106c-2.868-.459-4.98-1.626-6.354-3.49-1.375-1.865-1.828-4.152-1.412-6.86.448-2.7 1.598-4.747 3.494-6.113 1.896-1.366 4.268-1.813 7.137-1.354l6.821 1.106zm-7.642 3.626c-1.795-.292-3.175-.146-4.224.432-1.017.587-1.654 1.551-1.866 2.921-.233 1.382.055 2.491.862 3.326.788.847 2.084 1.401 3.879 1.693l6.874 1.103c1.816.28 3.24.163 4.248-.392s1.645-1.519 1.857-2.889c.233-1.382-.055-2.49-.854-3.358-.787-.847-2.095-1.421-3.922-1.722l-6.874-1.103.02-.011zm-.049-23.945-1.332 5.677 20.471 4.833-1.118 4.686-20.471-4.833-1.309 5.529-3.671-.863 3.738-15.881 3.672.863.02-.011zm5.414-17.771-1.717 5.575 20.101 6.212-1.418 4.588-20.101-6.212-1.674 5.414-3.603-1.12 4.81-15.577 3.602 1.12zm18.649-14.808c2.726 1.057 4.548 2.663 5.475 4.786.927 2.122.899 4.47-.106 7.003-.993 2.553-2.541 4.288-4.663 5.215-2.123.927-4.546.862-7.251-.207l-6.444-2.518c-2.705-1.068-4.535-2.642-5.483-4.753-.947-2.111-.92-4.459.074-7.012.993-2.553 2.561-4.299 4.704-5.238 2.143-.939 4.566-.874 7.26.175l6.443 2.517-.009.032zm-8.238 1.936c-1.68-.657-3.079-.825-4.205-.474-1.126.352-1.929 1.168-2.43 2.461-.501 1.293-.464 2.437.132 3.422.596.985 1.75 1.81 3.431 2.467l6.487 2.547c1.712.665 3.123.854 4.249.502 1.126-.351 1.92-1.136 2.442-2.44.501-1.293.452-2.458-.124-3.454-.587-1.017-1.741-1.843-3.454-2.508l-6.487-2.546-.041.023zm17.248-20.1-3.895 7.672-3.363-1.692 3.895-7.673 3.363 1.693zm22.749-20.999-2.577 4.037-8.709-5.549-4.298 6.74 8.708 5.548-2.577 4.038-20.916-13.308 2.565-4.058 9.047 5.76 4.299-6.739-9.036-5.74 2.578-4.037 20.916 13.308zm4.468-14.946-3.732 4.948 3.439 4.36-3.011 3.99-15.514-20.577 3.003-3.957 24.004 9.355-3.032 4.002-5.125-2.113-.032-.008zm-6.158 1.874 2.554-3.373-7.521-3.116-.057.087 5.024 6.402zm11.118-15.125 7.446 6.603-3.183 3.601-18.556-16.406 4.927-5.557c1.647-1.845 3.384-2.876 5.308-3.065 1.925-.189 3.699.441 5.422 1.969.956.858 1.592 1.819 1.909 2.884.316 1.065.301 2.213-.026 3.432 1.18-.681 2.324-.908 3.464-.671 1.14.237 2.249.844 3.373 1.85l1.345 1.203c.512.463 1.105.88 1.791 1.27.687.391 1.284.534 1.817.47l.266.226-3.301 3.723c-.533.064-1.145-.152-1.847-.615a17.239 17.239 0 0 1-1.952-1.503l-1.29-1.154c-.945-.838-1.855-1.288-2.712-1.363-.857-.075-1.616.255-2.277.989l-1.921 2.167-.003-.053zm-2.811-2.472 1.725-1.945c.69-.778.969-1.563.878-2.378-.112-.803-.59-1.585-1.435-2.344-.878-.768-1.733-1.17-2.61-1.233-.865-.043-1.645.299-2.314 1.065l-1.745 1.957 5.49 4.858.011.02zm16.105-11.793 6.942 7.138-3.44 3.342-17.26-17.778 5.339-5.171c1.77-1.726 3.601-2.594 5.511-2.666 1.911-.073 3.674.726 5.246 2.368.886.925 1.462 1.922 1.685 3.013.223 1.092.144 2.222-.279 3.416 1.227-.6 2.397-.733 3.511-.4 1.103.312 2.187 1.016 3.22 2.1l1.267 1.303a9.717 9.717 0 0 0 1.705 1.402c.637.446 1.238.641 1.782.598l.258.258-3.559 3.465c-.536.011-1.14-.237-1.792-.755a17.16 17.16 0 0 1-1.825-1.658l-1.212-1.253c-.875-.905-1.748-1.432-2.608-1.559-.86-.127-1.633.129-2.338.835l-2.088 2.019-.065-.017zm-2.601-2.675 1.859-1.805c.745-.729 1.088-1.497 1.05-2.315-.039-.818-.456-1.635-1.252-2.45-.808-.836-1.646-1.301-2.506-1.428-.86-.127-1.662.173-2.387.89l-1.88 1.817 5.104 5.271.012.02zm15.994-15.038.082-.047-3.65-11.018 4.016-3.377 4.707 16.89 5.679 6.783-3.677 3.072-5.88-6.992-15.493-7.436 4.017-3.376 10.191 5.533.008-.032zm22.739-11.012 5.003 7.444-3.985 2.68-13.83-20.572 6.877-4.622c2.074-1.387 4.096-1.876 6.12-1.472 2.023.405 3.683 1.589 5 3.541 1.328 1.972 1.794 3.954 1.39 5.977-.405 2.024-1.629 3.707-3.703 5.094l-2.893 1.941.021-.011zm-2.103-3.126 2.893-1.941c.9-.601 1.368-1.387 1.396-2.325.048-.95-.274-1.93-.954-2.92-.692-1.011-1.458-1.68-2.383-2.014-.925-.334-1.801-.208-2.701.393l-2.893 1.941 4.622 6.878.02-.012zm29.864-13.607c1.415 2.545 1.802 4.953 1.156 7.17-.645 2.216-2.158 4.012-4.561 5.345-2.403 1.333-4.697 1.681-6.913 1.035-2.217-.645-4.048-2.219-5.463-4.765l-3.351-6.038c-1.415-2.546-1.81-4.921-1.177-7.158.614-2.226 2.126-4.021 4.509-5.342 2.382-1.322 4.708-1.661 6.966-1.039 2.237.634 4.079 2.228 5.495 4.774l3.35 6.038-.011-.02zm-7.571-3.765c-.883-1.578-1.849-2.594-2.949-3.043-1.101-.45-2.23-.34-3.442.333-1.2.692-1.904 1.587-2.088 2.724-.184 1.137.171 2.504 1.067 4.102l3.386 6.1c.896 1.598 1.873 2.634 2.933 3.107 1.08.461 2.209.351 3.421-.321 1.2-.693 1.924-1.599 2.097-2.756.172-1.158-.163-2.537-1.059-4.135l-3.386-6.1.02-.011zm18.62-14.954-5.258 2.494 9.01 18.988-4.369 2.061-8.99-19-5.136 2.423-1.615-3.407 14.732-6.986 1.614 3.407.012.02zm17.202-6.84-5.417 2.124 7.699 19.583-4.481 1.773-7.699-19.582-5.284 2.074-1.367-3.496 15.182-5.971 1.367 3.495zm23.246 5.319c.872 2.778.754 5.205-.343 7.249-1.098 2.044-2.927 3.479-5.551 4.289-2.623.81-4.946.686-6.978-.392-2.052-1.065-3.506-3.019-4.378-5.798l-2.048-6.6c-.872-2.778-.755-5.205.311-7.258s2.915-3.5 5.518-4.298c2.624-.81 4.958-.666 7.022.421 2.065 1.086 3.539 3.028 4.399 5.786l2.048 6.601zm-6.627-5.232c-.535-1.725-1.28-2.922-2.256-3.579-.976-.657-2.11-.789-3.442-.372-1.332.416-2.203 1.163-2.612 2.24-.409 1.076-.324 2.492.211 4.217l2.052 6.653c.547 1.745 1.283 2.974 2.239 3.643.955.669 2.089.801 3.421.384 1.333-.416 2.203-1.163 2.632-2.252.429-1.088.365-2.515-.194-4.281l-2.072-6.641.021-.012zm26.456.97-8.428 1.747-.768-3.679 8.428-1.747.768 3.679z"/></g><defs><radialGradient id="b" cx="0" cy="0" r="1" gradientTransform="rotate(60 -147.75 551.911) scale(295.5)" gradientUnits="userSpaceOnUse"><stop offset=".535" stop-color="#997D39" stop-opacity="0"/><stop offset="1" stop-color="#FFD05F"/></radialGradient><filter id="a" width="859.588" height="859.221" x="-25.7" y="-25.7" color-interpolation-filters="sRGB" filterUnits="userSpaceOnUse"><feFlood flood-opacity="0" result="BackgroundImageFix"/><feColorMatrix in="SourceAlpha" result="hardAlpha" values="0 0 0 0 0 0 0 0 0 0 0 0 0 0 0 0 0 0 127 0"/><feOffset/><feGaussianBlur stdDeviation="12.85"/><feColorMatrix values="0 0 0 0 1 0 0 0 0 0.813856 0 0 0 0 0.370833 0 0 0 1 0"/><feBlend in2="BackgroundImageFix" result="effect1_dropShadow_192_139"/><feBlend in="SourceGraphic" in2="effect1_dropShadow_192_139" result="shape"/></filter></defs></svg>